<?xml version="1.0" encoding="UTF-8" standalone="no"?>
<svg
   xmlns:dc="http://purl.org/dc/elements/1.1/"
   xmlns:cc="http://creativecommons.org/ns#"
   xmlns:rdf="http://www.w3.org/1999/02/22-rdf-syntax-ns#"
   xmlns:svg="http://www.w3.org/2000/svg"
   xmlns="http://www.w3.org/2000/svg"
   xmlns:sodipodi="http://sodipodi.sourceforge.net/DTD/sodipodi-0.dtd"
   xmlns:inkscape="http://www.inkscape.org/namespaces/inkscape"
   version="1.1"
   x="0px"
   y="0px"
   viewBox="-461 463 100 100"
   style="enable-background:new -461 463 100 100;"
   xml:space="preserve"
   id="svg3092"
   inkscape:version="0.48.4 r9939"
   width="100%"
   height="100%"
   sodipodi:docname="backup12.svg"><metadata
     id="metadata3102"><rdf:RDF><cc:Work
         rdf:about=""><dc:format>image/svg+xml</dc:format><dc:type
           rdf:resource="http://purl.org/dc/dcmitype/StillImage" /><dc:title></dc:title></cc:Work></rdf:RDF></metadata><defs
     id="defs3100" /><sodipodi:namedview
     pagecolor="#ffffff"
     bordercolor="#666666"
     borderopacity="1"
     objecttolerance="10"
     gridtolerance="10"
     guidetolerance="10"
     inkscape:pageopacity="0"
     inkscape:pageshadow="2"
     inkscape:window-width="669"
     inkscape:window-height="480"
     id="namedview3098"
     showgrid="false"
     inkscape:zoom="2.36"
     inkscape:cx="50"
     inkscape:cy="50"
     inkscape:window-x="0"
     inkscape:window-y="24"
     inkscape:window-maximized="0"
     inkscape:current-layer="svg3092" /><path
     d="m -391.7396,465.75754 c -0.1841,-0.0781 -0.27615,-0.11722 -0.46025,-0.19537 -0.1841,-0.0781 -0.3682,-0.15629 -0.64435,-0.27351 -0.092,-0.0391 -0.1841,-0.0781 -0.27615,-0.11722 -0.27615,-0.11722 -0.46025,-0.19536 -0.73641,-0.31258 -0.092,-0.0391 -0.092,-0.0391 -0.1841,-0.0781 -2.93171,-1.02717 -5.98064,-1.77818 -9.00176,-2.08285 -8.98522,-1.09809 -18.38106,0.56268 -26.82067,5.34526 -8.17736,4.67661 -14.28526,11.64394 -17.99984,19.62716 -0.0391,0.0921 -0.0781,0.1841 -0.0781,0.1841 -0.11722,0.27615 -0.19537,0.46025 -0.31259,0.73641 -0.0391,0.092 -0.0391,0.092 -0.0781,0.1841 -0.0391,0.092 -0.0781,0.1841 -0.11722,0.27615 -0.0781,0.1841 -0.15629,0.3682 -0.27351,0.64435 -0.0781,0.1841 -0.1563,0.3682 -0.23444,0.5523 -0.0391,0.0921 -0.11722,0.27616 -0.15629,0.36821 -0.35166,0.82845 -0.5722,1.60393 -0.8318,2.47146 -0.0391,0.0921 -0.0781,0.1841 -0.11722,0.27615 -0.0781,0.1841 -0.10332,0.49932 -0.18146,0.68342 -0.0781,0.1841 -0.11722,0.27615 -0.10332,0.49933 0.0139,0.22317 -0.0642,0.40727 -0.14239,0.59137 -0.11722,0.27616 -0.10331,0.49933 -0.22053,0.77548 -0.0391,0.092 -0.0781,0.1841 -0.0252,0.31523 -2.10802,9.31698 -1.22008,19.25386 3.19693,28.29875 0.053,0.13113 0.10596,0.26225 0.19801,0.30132 0.10595,0.26225 0.25098,0.43245 0.26489,0.65562 0.10595,0.26225 0.25098,0.43244 0.35693,0.69469 0.092,0.0391 0.053,0.13113 0.14503,0.1702 0.30396,0.56357 0.60792,1.12713 0.91188,1.6907 l 0,0 c 0.95095,1.59865 2.12508,3.1834 3.20716,4.72908 l -5.07951,11.96656 c -1.17219,2.76151 0.15224,6.0396 2.91376,7.2118 l 25.68208,10.90139 c 2.76152,1.1722 6.03961,-0.15224 7.2118,-2.91375 l 10.9014,-25.68209 c 1.17219,-2.76151 -0.15224,-6.0396 -2.91375,-7.21179 l -25.68209,-10.9014 c -2.76151,-1.1722 -6.0396,0.15224 -7.2118,2.91375 l -3.71194,8.7448 c -0.59402,-0.90396 -1.28009,-1.847 -1.83503,-2.84301 -0.30396,-0.56356 -0.60792,-1.12713 -0.91188,-1.6907 -0.053,-0.13112 -0.053,-0.13112 -0.10595,-0.26225 -0.21191,-0.52449 -0.46289,-0.95694 -0.6748,-1.48143 -0.10596,-0.26225 -0.21191,-0.52449 -0.35694,-0.69469 -0.10596,-0.26225 -0.15893,-0.39337 -0.26489,-0.65562 -2.54291,-6.29393 -3.32824,-13.14545 -2.48447,-19.73999 -0.0139,-0.22318 0.0642,-0.40728 0.0503,-0.63045 0.0642,-0.40728 0.12848,-0.81455 0.19272,-1.22183 0.0252,-0.31522 0.18146,-0.68342 0.20663,-0.99865 0.0391,-0.092 0.0252,-0.31522 0.0642,-0.40727 0.10332,-0.49933 0.20663,-0.99865 0.44107,-1.55096 0.0391,-0.0921 0.0782,-0.1841 0.11722,-0.27615 0.14239,-0.59138 0.33776,-1.05163 0.48014,-1.643 l 0.0391,-0.0921 c 0.19536,-0.46026 0.33775,-1.05163 0.53312,-1.51189 0.0391,-0.092 0.0781,-0.1841 0.11722,-0.27615 0.19536,-0.46025 0.39073,-0.9205 0.58609,-1.38075 0.23444,-0.55231 0.42981,-1.01256 0.66425,-1.56486 0.0391,-0.092 0.0391,-0.092 0.0781,-0.1841 7.05499,-14.0612 21.77198,-22.37143 36.87495,-21.60968 0.092,0.0391 0.092,0.0391 0.22318,-0.0139 0.5384,0.0113 1.03772,0.11458 1.48407,0.0868 0.22317,-0.0139 0.40727,0.0642 0.63045,0.0503 0.40727,0.0642 0.7225,0.0894 1.12977,0.15365 0.31523,0.0252 0.59138,0.14239 0.81455,0.12849 0.31523,0.0252 0.59138,0.14238 0.9066,0.16755 0.31523,0.0252 0.68343,0.18146 0.99866,0.20663 0.31522,0.0252 0.49932,0.10332 0.77547,0.22054 0.40728,0.0642 0.68343,0.18146 1.0907,0.2457 0.27616,0.11722 0.59138,0.14239 0.77548,0.22053 0.27615,0.11722 0.68343,0.18147 0.95958,0.29869 0.27615,0.11721 0.68343,0.18146 0.95958,0.29868 0.27615,0.11722 0.5523,0.23443 0.86752,0.2596 0.36821,0.1563 0.73641,0.31259 1.10461,0.46888 0.1841,0.0781 0.3682,0.15629 0.5523,0.23444 0.46026,0.19537 0.92051,0.39073 1.47281,0.62517 0.0921,0.0391 0.1841,0.0782 0.3682,0.15629 12.52151,6.07552 20.44172,18.12833 21.61637,31.22872 -0.0391,0.0921 0.0139,0.22317 0.0139,0.22317 0.0278,0.44635 0.0165,0.98475 0.1364,1.47017 0.0139,0.22318 -0.0113,0.5384 0.0947,0.80065 -0.0252,0.31522 -0.0113,0.5384 0.0556,0.89269 0.0278,0.44635 -0.0364,0.85363 0.0304,1.20792 0.053,0.13113 -0.0252,0.31523 0.0278,0.44635 -0.0113,0.5384 -0.0225,1.0768 -0.12585,1.57613 l -0.0391,0.0921 c -0.11194,1.79929 -0.40798,3.52044 -0.79607,5.20252 l 0,0 c -0.53048,2.27346 -1.19208,4.59989 -2.16891,6.90115 -3.28214,7.73224 -8.89336,14.0413 -16.02173,18.2941 l -3.80381,-6.3946 -3.39479,13.11622 13.11623,3.39479 -3.65879,-6.22441 c 7.95419,-4.66272 14.27136,-11.86712 17.90516,-20.42781 2.42253,-5.70713 3.53119,-11.64606 3.43193,-17.55454 l 0.0391,-0.092 c 0.0113,-0.5384 -0.0695,-1.11587 -0.0583,-1.65427 -0.0139,-0.22318 -0.0669,-0.3543 0.0113,-0.5384 -0.0278,-0.44635 -0.0556,-0.8927 -0.1225,-1.24699 -0.0669,-0.3543 -0.0417,-0.66953 -0.14767,-0.93177 0,0 0.0391,-0.092 -0.053,-0.13113 -0.62375,-5.69657 -2.53358,-11.17859 -5.36127,-16.28977 -4.28061,-7.57472 -10.5506,-13.27798 -17.6802,-16.95614 0,0 0,0 -0.0921,-0.0391 -0.27615,-0.11722 -0.64435,-0.27351 -0.88143,-0.48278 -0.0921,-0.0391 -0.1841,-0.0781 -0.1841,-0.0781 -0.27615,-0.11722 -0.46026,-0.19536 -0.73641,-0.31258 -0.092,-0.0391 -0.1841,-0.0781 -0.3682,-0.15629 -0.1841,-0.0781 -0.3682,-0.1563 -0.64435,-0.27352 -0.0921,-0.0391 -0.0921,-0.0391 -0.1841,-0.0781 -0.0921,-0.0391 -0.1841,-0.0781 -0.27616,-0.11722 z m -39.12694,53.78775 25.68208,10.90139 c 0.92051,0.39074 1.34432,1.43972 0.95359,2.36023 l -10.9014,25.68208 c -0.39073,0.92051 -1.43972,1.34433 -2.36022,0.9536 l -25.68209,-10.9014 c -0.9205,-0.39073 -1.34432,-1.43972 -0.95359,-2.36023 l 10.9014,-25.68208 c 0.35166,-0.82846 1.43972,-1.34433 2.36023,-0.95359 z"
     id="path3094"
     inkscape:connector-curvature="0" /><circle
     cx="-441.60001"
     cy="510.60001"
     r="7.3000002"
     id="circle3096"
     sodipodi:cx="-441.60001"
     sodipodi:cy="510.60001"
     sodipodi:rx="7.3000002"
     sodipodi:ry="7.3000002"
     transform="matrix(0.39073113,-0.92050485,0.92050485,0.39073113,-721.61594,-66.442759)" /></svg>