<?xml version="1.0" encoding="UTF-8" standalone="no"?>
<svg
   xmlns:dc="http://purl.org/dc/elements/1.1/"
   xmlns:cc="http://creativecommons.org/ns#"
   xmlns:rdf="http://www.w3.org/1999/02/22-rdf-syntax-ns#"
   xmlns:svg="http://www.w3.org/2000/svg"
   xmlns="http://www.w3.org/2000/svg"
   xmlns:sodipodi="http://sodipodi.sourceforge.net/DTD/sodipodi-0.dtd"
   xmlns:inkscape="http://www.inkscape.org/namespaces/inkscape"
   version="1.1"
   x="0px"
   y="0px"
   viewBox="-461 463 100 100"
   style="enable-background:new -461 463 100 100;"
   xml:space="preserve"
   id="svg3092"
   inkscape:version="0.48.4 r9939"
   width="100%"
   height="100%"
   sodipodi:docname="backup4.svg"><metadata
     id="metadata3102"><rdf:RDF><cc:Work
         rdf:about=""><dc:format>image/svg+xml</dc:format><dc:type
           rdf:resource="http://purl.org/dc/dcmitype/StillImage" /><dc:title></dc:title></cc:Work></rdf:RDF></metadata><defs
     id="defs3100" /><sodipodi:namedview
     pagecolor="#ffffff"
     bordercolor="#666666"
     borderopacity="1"
     objecttolerance="10"
     gridtolerance="10"
     guidetolerance="10"
     inkscape:pageopacity="0"
     inkscape:pageshadow="2"
     inkscape:window-width="669"
     inkscape:window-height="480"
     id="namedview3098"
     showgrid="false"
     inkscape:zoom="2.36"
     inkscape:cx="50"
     inkscape:cy="50"
     inkscape:window-x="0"
     inkscape:window-y="24"
     inkscape:window-maximized="0"
     inkscape:current-layer="svg3092" /><path
     d="m -429.45217,558.37157 c 0.18543,0.0749 0.27815,0.11239 0.46359,0.18731 0.18543,0.0749 0.37087,0.14984 0.64903,0.26222 0.0927,0.0375 0.18543,0.0749 0.27815,0.11238 0.27816,0.11239 0.46359,0.18731 0.74175,0.29969 0.0927,0.0375 0.0927,0.0375 0.18544,0.0749 2.94919,0.97584 6.01076,1.67353 9.03674,1.92543 9.00301,0.94111 18.36844,-0.88339 26.7233,-5.81253 8.09449,-4.81862 14.07986,-11.89148 17.65456,-19.93831 0.0375,-0.0927 0.0749,-0.18544 0.0749,-0.18544 0.11238,-0.27815 0.1873,-0.46359 0.29968,-0.74175 0.0375,-0.0927 0.0375,-0.0927 0.0749,-0.18543 0.0375,-0.0927 0.0749,-0.18544 0.11238,-0.27816 0.0749,-0.18543 0.14984,-0.37087 0.26222,-0.64903 0.0749,-0.18543 0.14984,-0.37087 0.22477,-0.55631 0.0375,-0.0927 0.11238,-0.27815 0.14984,-0.37087 0.33714,-0.83447 0.54411,-1.61367 0.78854,-2.4856 0.0375,-0.0927 0.0749,-0.18544 0.11238,-0.27815 0.0749,-0.18544 0.0946,-0.50106 0.16951,-0.68649 0.0749,-0.18544 0.11238,-0.27816 0.0946,-0.50106 -0.0178,-0.22289 0.0571,-0.40833 0.13205,-0.59377 0.11238,-0.27815 0.0946,-0.50105 0.20696,-0.7792 0.0375,-0.0927 0.0749,-0.18544 0.0197,-0.31562 1.94509,-9.35236 0.88386,-19.27223 -3.69033,-28.23865 -0.0553,-0.13018 -0.11052,-0.26036 -0.20324,-0.29782 -0.11051,-0.26036 -0.25849,-0.428 -0.27629,-0.6509 -0.11051,-0.26035 -0.25849,-0.42799 -0.369,-0.68835 -0.0927,-0.0375 -0.0553,-0.13018 -0.14798,-0.16764 -0.31375,-0.55818 -0.6275,-1.11636 -0.94125,-1.67453 l 0,0 c -0.9787,-1.58181 -2.18031,-3.14583 -3.2892,-4.67238 l 4.86989,-12.05339 c 1.12382,-2.78156 -0.25763,-6.03603 -3.03918,-7.15985 l -25.86843,-10.45153 c -2.78155,-1.12382 -6.03602,0.25763 -7.15984,3.03918 l -10.45153,25.86843 c -1.12382,2.78155 0.25763,6.03603 3.03918,7.15985 l 25.86843,10.45152 c 2.78155,1.12382 6.03602,-0.25762 7.15984,-3.03917 l 3.55877,-8.80825 c 0.6097,0.89345 1.31212,1.82437 1.88436,2.81055 0.31375,0.55817 0.6275,1.11635 0.94125,1.67453 0.0553,0.13018 0.0553,0.13018 0.11051,0.26035 0.22103,0.52072 0.47952,0.94872 0.70056,1.46944 0.11051,0.26035 0.22103,0.52071 0.369,0.68835 0.11052,0.26036 0.16578,0.39054 0.27629,0.6509 2.65237,6.24859 3.55716,13.08536 2.82861,19.69362 0.0178,0.2229 -0.0571,0.40834 -0.0393,0.63124 -0.0571,0.40833 -0.11425,0.81666 -0.17137,1.225 -0.0197,0.31561 -0.16951,0.68649 -0.18917,1.0021 -0.0375,0.0927 -0.0197,0.31562 -0.0571,0.40834 -0.0946,0.50105 -0.18917,1.0021 -0.41393,1.55841 -0.0375,0.0927 -0.0749,0.18544 -0.11238,0.27816 -0.13205,0.59377 -0.31935,1.05736 -0.4514,1.65113 l -0.0375,0.0927 c -0.1873,0.46359 -0.31935,1.05736 -0.50665,1.52096 -0.0375,0.0927 -0.0749,0.18543 -0.11238,0.27815 -0.18731,0.46359 -0.37461,0.92718 -0.56191,1.39078 -0.22477,0.55631 -0.41207,1.0199 -0.63683,1.57621 -0.0375,0.0927 -0.0375,0.0927 -0.0749,0.18544 -6.8085,14.18218 -21.37822,22.74799 -36.49219,22.24993 -0.0927,-0.0375 -0.0927,-0.0375 -0.2229,0.0178 -0.53851,-0.002 -1.03956,-0.0965 -1.48536,-0.0609 -0.2229,0.0178 -0.40833,-0.0571 -0.63123,-0.0393 -0.40833,-0.0571 -0.72395,-0.0768 -1.13228,-0.13392 -0.31562,-0.0197 -0.59377,-0.13204 -0.81667,-0.11424 -0.31562,-0.0197 -0.59377,-0.13205 -0.90939,-0.15171 -0.31561,-0.0197 -0.68649,-0.16951 -1.0021,-0.18917 -0.31562,-0.0197 -0.50106,-0.0946 -0.77921,-0.20697 -0.40834,-0.0571 -0.68649,-0.16951 -1.09483,-0.22663 -0.27815,-0.11238 -0.59377,-0.13205 -0.7792,-0.20697 -0.27816,-0.11238 -0.68649,-0.1695 -0.96465,-0.28189 -0.27815,-0.11238 -0.68649,-0.1695 -0.96464,-0.28188 -0.27816,-0.11239 -0.55631,-0.22477 -0.87193,-0.24443 -0.37087,-0.14984 -0.74175,-0.29969 -1.11262,-0.44953 -0.18544,-0.0749 -0.37087,-0.14984 -0.55631,-0.22476 -0.46359,-0.18731 -0.92718,-0.37461 -1.48349,-0.59937 -0.0927,-0.0375 -0.18544,-0.0749 -0.37088,-0.14985 -12.62563,-5.85606 -20.75498,-17.76881 -22.15808,-30.8467 0.0375,-0.0927 -0.0178,-0.2229 -0.0178,-0.2229 -0.0356,-0.44579 -0.0337,-0.98431 -0.16204,-1.46756 -0.0178,-0.2229 0.002,-0.53851 -0.10865,-0.79887 0.0197,-0.31562 0.002,-0.53852 -0.0712,-0.89159 -0.0356,-0.4458 0.0215,-0.85413 -0.0515,-1.20721 -0.0553,-0.13018 0.0197,-0.31561 -0.0356,-0.44579 0.002,-0.53852 0.004,-1.07703 0.0983,-1.57808 l 0.0375,-0.0927 c 0.0805,-1.80098 0.34648,-3.52703 0.70516,-5.21563 l 0,0 c 0.49072,-2.28236 1.11162,-4.61999 2.04813,-6.93794 3.1467,-7.78835 8.64695,-14.19438 15.70001,-18.57094 l 3.91484,6.32725 3.16536,-13.17348 -13.17348,-3.16536 3.76686,6.15961 c -7.8716,4.80082 -14.06207,12.11438 -17.54591,20.73719 -2.32256,5.74854 -3.3274,11.70591 -3.12504,17.61176 l -0.0375,0.0927 c -0.002,0.53851 0.089,1.11448 0.0871,1.653 0.0178,0.22289 0.0731,0.35307 -0.002,0.53851 0.0356,0.44579 0.0712,0.89159 0.14425,1.24467 0.073,0.35307 0.0534,0.66869 0.1639,0.92905 0,0 -0.0375,0.0927 0.0553,0.13018 0.72308,5.68481 2.72829,11.13267 5.64475,16.19372 4.41216,7.49886 10.78073,13.09183 17.97344,16.64499 0,0 0,0 0.0927,0.0375 0.27816,0.11238 0.64903,0.26223 0.88973,0.46733 0.0927,0.0375 0.18543,0.0749 0.18543,0.0749 0.27816,0.11238 0.4636,0.1873 0.74175,0.29968 0.0927,0.0375 0.18544,0.0749 0.37087,0.14985 0.18544,0.0749 0.37088,0.14984 0.64903,0.26222 0.0927,0.0375 0.0927,0.0375 0.18544,0.0749 0.0927,0.0375 0.18544,0.0749 0.27816,0.11238 z m 38.18226,-54.46241 -25.86843,-10.45152 c -0.92718,-0.37461 -1.36924,-1.41604 -0.99464,-2.34323 l 10.45153,-25.86843 c 0.3746,-0.92718 1.41603,-1.36924 2.34322,-0.99464 l 25.86843,10.45153 c 0.92718,0.37461 1.36924,1.41604 0.99464,2.34322 l -10.45153,25.86843 c -0.33714,0.83447 -1.41604,1.36925 -2.34322,0.99464 z"
     id="path3094"
     inkscape:connector-curvature="0" /><circle
     cx="-441.60001"
     cy="510.60001"
     r="7.3000002"
     id="circle3096"
     sodipodi:cx="-441.60001"
     sodipodi:cy="510.60001"
     sodipodi:rx="7.3000002"
     sodipodi:ry="7.3000002"
     transform="matrix(-0.37460659,0.92718385,-0.92718385,-0.37460659,-90.337895,1084.7337)" /></svg>