<?xml version="1.0" encoding="UTF-8" standalone="no"?>
<svg
   xmlns:dc="http://purl.org/dc/elements/1.1/"
   xmlns:cc="http://creativecommons.org/ns#"
   xmlns:rdf="http://www.w3.org/1999/02/22-rdf-syntax-ns#"
   xmlns:svg="http://www.w3.org/2000/svg"
   xmlns="http://www.w3.org/2000/svg"
   xmlns:sodipodi="http://sodipodi.sourceforge.net/DTD/sodipodi-0.dtd"
   xmlns:inkscape="http://www.inkscape.org/namespaces/inkscape"
   version="1.1"
   x="0px"
   y="0px"
   viewBox="-461 463 100 100"
   style="enable-background:new -461 463 100 100;"
   xml:space="preserve"
   id="svg3092"
   inkscape:version="0.48.4 r9939"
   width="100%"
   height="100%"
   sodipodi:docname="backup.svg"><metadata
     id="metadata3102"><rdf:RDF><cc:Work
         rdf:about=""><dc:format>image/svg+xml</dc:format><dc:type
           rdf:resource="http://purl.org/dc/dcmitype/StillImage" /><dc:title></dc:title></cc:Work></rdf:RDF></metadata><defs
     id="defs3100" /><sodipodi:namedview
     pagecolor="#ffffff"
     bordercolor="#666666"
     borderopacity="1"
     objecttolerance="10"
     gridtolerance="10"
     guidetolerance="10"
     inkscape:pageopacity="0"
     inkscape:pageshadow="2"
     inkscape:window-width="669"
     inkscape:window-height="480"
     id="namedview3098"
     showgrid="false"
     inkscape:zoom="2.36"
     inkscape:cx="50"
     inkscape:cy="50"
     inkscape:window-x="0"
     inkscape:window-y="24"
     inkscape:window-maximized="0"
     inkscape:current-layer="svg3092" /><path
     d="m -375.43253,547.04321 c 0.14142,-0.14142 0.21213,-0.21214 0.35355,-0.35356 0.14143,-0.14142 0.28285,-0.28284 0.49498,-0.49497 0.0707,-0.0707 0.14142,-0.14142 0.21213,-0.21213 0.21213,-0.21214 0.35355,-0.35356 0.56569,-0.56569 0.0707,-0.0707 0.0707,-0.0707 0.14142,-0.14142 2.05061,-2.33345 3.88909,-4.87904 5.3033,-7.56604 4.38406,-7.9196 6.36396,-17.25341 5.09117,-26.87006 -1.27279,-9.33381 -5.44472,-17.60696 -11.45513,-24.04163 -0.0707,-0.0707 -0.14142,-0.14142 -0.14142,-0.14142 -0.21214,-0.21213 -0.35356,-0.35356 -0.56569,-0.56569 -0.0707,-0.0707 -0.0707,-0.0707 -0.14142,-0.14142 -0.0707,-0.0707 -0.14142,-0.14142 -0.21213,-0.21213 -0.14142,-0.14142 -0.28285,-0.28284 -0.49498,-0.49498 -0.14142,-0.14142 -0.28284,-0.28284 -0.42426,-0.42426 -0.0707,-0.0707 -0.21213,-0.21213 -0.28284,-0.28284 -0.6364,-0.6364 -1.2728,-1.13137 -1.9799,-1.69706 -0.0707,-0.0707 -0.14142,-0.14142 -0.21213,-0.21213 -0.14143,-0.14142 -0.42427,-0.28284 -0.56569,-0.42426 -0.14142,-0.14143 -0.21213,-0.21214 -0.42426,-0.28285 -0.21214,-0.0707 -0.35356,-0.21213 -0.49498,-0.35355 -0.21213,-0.21213 -0.42426,-0.28284 -0.6364,-0.49498 -0.0707,-0.0707 -0.14142,-0.14142 -0.28284,-0.14142 -7.84888,-5.44472 -17.39482,-8.34386 -27.43574,-7.63675 -0.14142,0 -0.28284,0 -0.35355,0.0707 -0.28285,0 -0.49498,0.0707 -0.70711,0 -0.28284,0 -0.49498,0.0707 -0.77782,0.0707 -0.0707,0.0707 -0.14142,0 -0.21213,0.0707 -0.6364,0.0707 -1.27279,0.14142 -1.90919,0.21213 l 0,0 c -1.83848,0.28285 -3.74766,0.77782 -5.58614,1.20209 l -9.19239,-9.19239 c -2.12132,-2.12132 -5.65685,-2.12132 -7.77818,0 l -19.72827,19.72828 c -2.12132,2.12132 -2.12132,5.65685 0,7.77817 l 19.72827,19.72828 c 2.12133,2.12132 5.65686,2.12132 7.77818,0 l 19.72828,-19.72828 c 2.12132,-2.12132 2.12132,-5.65685 0,-7.77817 l -6.71752,-6.71752 c 1.06066,-0.21213 2.19204,-0.49497 3.32341,-0.63639 0.63639,-0.0707 1.27279,-0.14143 1.90918,-0.21214 0.14143,0 0.14143,0 0.28285,0 0.56568,0 1.06066,-0.0707 1.62634,-0.0707 0.28285,0 0.56569,0 0.77782,-0.0707 0.28284,0 0.42426,0 0.70711,0 6.78822,0 13.43503,1.83848 19.2333,5.09117 0.21213,0.0707 0.35355,0.21213 0.56569,0.28284 0.35355,0.21214 0.7071,0.42427 1.06066,0.6364 0.28284,0.14142 0.56568,0.42426 0.84852,0.56569 0.0707,0.0707 0.28285,0.14142 0.35356,0.21213 0.42426,0.28284 0.84853,0.56568 1.27279,0.98995 0.0707,0.0707 0.14142,0.14142 0.21213,0.21213 0.49498,0.35355 0.84853,0.70711 1.34351,1.06066 l 0.0707,0.0707 c 0.35355,0.35355 0.84852,0.70711 1.20208,1.06066 0.0707,0.0707 0.14142,0.14142 0.21213,0.21213 0.35355,0.35356 0.70711,0.70711 1.06066,1.06066 0.42426,0.42427 0.77782,0.77782 1.20208,1.20208 0.0707,0.0707 0.0707,0.0707 0.14142,0.14143 10.39447,11.80868 12.5865,28.56711 6.22254,42.28498 -0.0707,0.0707 -0.0707,0.0707 -0.0707,0.21213 -0.21213,0.49498 -0.49497,0.91924 -0.63639,1.34351 -0.0707,0.21213 -0.21214,0.35355 -0.28285,0.56568 -0.21213,0.35355 -0.35355,0.6364 -0.56568,0.98995 -0.14142,0.28284 -0.35356,0.49498 -0.42427,0.70711 -0.14142,0.28284 -0.35355,0.49497 -0.49497,0.77781 -0.14142,0.28285 -0.42427,0.56569 -0.56569,0.84853 -0.14142,0.28285 -0.28284,0.42427 -0.49497,0.6364 -0.21213,0.35355 -0.42427,0.56568 -0.6364,0.91924 -0.21213,0.21213 -0.35355,0.49497 -0.49497,0.63639 -0.21213,0.21214 -0.42427,0.56569 -0.6364,0.77782 -0.21213,0.21213 -0.42426,0.56569 -0.63639,0.77782 -0.21214,0.21213 -0.42427,0.42426 -0.56569,0.70711 -0.28284,0.28284 -0.56569,0.56568 -0.84853,0.84852 -0.14142,0.14143 -0.28284,0.28285 -0.42426,0.42427 -0.35356,0.35355 -0.70711,0.7071 -1.13137,1.13137 -0.0707,0.0707 -0.14142,0.14142 -0.28285,0.28284 -10.32375,9.33381 -24.46589,12.16224 -37.05239,8.34386 -0.0707,-0.0707 -0.21213,-0.0707 -0.21213,-0.0707 -0.42427,-0.14142 -0.91924,-0.35355 -1.41422,-0.42426 -0.21213,-0.0707 -0.49497,-0.21214 -0.77781,-0.21214 -0.28285,-0.14142 -0.49498,-0.21213 -0.84853,-0.28284 -0.42427,-0.14142 -0.77782,-0.35355 -1.13137,-0.42426 -0.14142,0 -0.28285,-0.14142 -0.42427,-0.14142 -0.49497,-0.21214 -0.98995,-0.42427 -1.41421,-0.70711 l -0.0707,-0.0707 c -1.62635,-0.77782 -3.11127,-1.69706 -4.52548,-2.68701 l 0,0 c -1.90919,-1.3435 -3.81838,-2.82842 -5.58615,-4.59619 -5.9397,-5.9397 -9.68736,-13.50574 -10.96015,-21.70818 l 7.35391,-1.13137 -10.88945,-8.06102 -8.06101,10.88945 7.14177,-1.06066 c 1.34351,9.12167 5.65686,17.67767 12.23295,24.25376 4.38406,4.38406 9.47523,7.63675 14.99066,9.75807 l 0.0707,0.0707 c 0.49497,0.21214 1.06066,0.35356 1.55563,0.56569 0.21213,0.0707 0.35355,0.0707 0.49498,0.21213 0.42426,0.14142 0.84852,0.28284 1.20208,0.35355 0.35355,0.0707 0.63639,0.21214 0.91924,0.21214 0,0 0.0707,0.0707 0.14142,0 5.51543,1.55563 11.31371,1.83847 17.11198,1.13137 8.6267,-1.13137 16.26346,-4.80833 22.34458,-10.04092 0,0 0,0 0.0707,-0.0707 0.21213,-0.21213 0.49497,-0.49497 0.77781,-0.6364 0.0707,-0.0707 0.14142,-0.14142 0.14142,-0.14142 0.21214,-0.21213 0.35356,-0.35355 0.56569,-0.56568 0.0707,-0.0707 0.14142,-0.14142 0.28284,-0.28284 0.14142,-0.14143 0.28285,-0.28285 0.49498,-0.49498 0.0707,-0.0707 0.0707,-0.0707 0.14142,-0.14142 0.0707,-0.0707 0.14142,-0.14142 0.21213,-0.21213 z m -35.21392,-56.42712 -19.72828,19.72828 c -0.7071,0.7071 -1.83847,0.7071 -2.54558,0 l -19.72828,-19.72828 c -0.70711,-0.70711 -0.70711,-1.83848 0,-2.54559 l 19.72828,-19.72828 c 0.70711,-0.7071 1.83848,-0.7071 2.54558,0 l 19.72828,19.72828 c 0.6364,0.6364 0.70711,1.83848 0,2.54559 z"
     id="path3094"
     inkscape:connector-curvature="0" /><circle
     cx="-441.60001"
     cy="510.60001"
     r="7.3000002"
     id="circle3096"
     sodipodi:cx="-441.60001"
     sodipodi:cy="510.60001"
     sodipodi:rx="7.3000002"
     sodipodi:ry="7.3000002"
     transform="matrix(0.70710678,0.70710678,-0.70710678,0.70710678,241.58885,440.55293)" /></svg>