<?xml version="1.0" encoding="UTF-8" standalone="no"?>
<svg
   xmlns:dc="http://purl.org/dc/elements/1.1/"
   xmlns:cc="http://creativecommons.org/ns#"
   xmlns:rdf="http://www.w3.org/1999/02/22-rdf-syntax-ns#"
   xmlns:svg="http://www.w3.org/2000/svg"
   xmlns="http://www.w3.org/2000/svg"
   xmlns:sodipodi="http://sodipodi.sourceforge.net/DTD/sodipodi-0.dtd"
   xmlns:inkscape="http://www.inkscape.org/namespaces/inkscape"
   version="1.1"
   x="0px"
   y="0px"
   viewBox="-461 463 100 100"
   style="enable-background:new -461 463 100 100;"
   xml:space="preserve"
   id="svg3092"
   inkscape:version="0.48.4 r9939"
   width="100%"
   height="100%"
   sodipodi:docname="backup8.svg"><metadata
     id="metadata3102"><rdf:RDF><cc:Work
         rdf:about=""><dc:format>image/svg+xml</dc:format><dc:type
           rdf:resource="http://purl.org/dc/dcmitype/StillImage" /><dc:title></dc:title></cc:Work></rdf:RDF></metadata><defs
     id="defs3100" /><sodipodi:namedview
     pagecolor="#ffffff"
     bordercolor="#666666"
     borderopacity="1"
     objecttolerance="10"
     gridtolerance="10"
     guidetolerance="10"
     inkscape:pageopacity="0"
     inkscape:pageshadow="2"
     inkscape:window-width="669"
     inkscape:window-height="480"
     id="namedview3098"
     showgrid="false"
     inkscape:zoom="2.36"
     inkscape:cx="50"
     inkscape:cy="50"
     inkscape:window-x="0"
     inkscape:window-y="24"
     inkscape:window-maximized="0"
     inkscape:current-layer="svg3092" /><path
     d="m -364.52843,530.35217 c 0.0749,-0.18543 0.11239,-0.27815 0.18731,-0.46359 0.0749,-0.18543 0.14984,-0.37087 0.26222,-0.64903 0.0375,-0.0927 0.0749,-0.18543 0.11238,-0.27815 0.11239,-0.27816 0.18731,-0.46359 0.29969,-0.74175 0.0375,-0.0927 0.0375,-0.0927 0.0749,-0.18544 0.97584,-2.94919 1.67353,-6.01076 1.92543,-9.03674 0.94111,-9.00301 -0.88339,-18.36844 -5.81253,-26.7233 -4.81862,-8.09449 -11.89148,-14.07986 -19.93831,-17.65456 -0.0927,-0.0375 -0.18544,-0.0749 -0.18544,-0.0749 -0.27815,-0.11238 -0.46359,-0.1873 -0.74175,-0.29968 -0.0927,-0.0375 -0.0927,-0.0375 -0.18543,-0.0749 -0.0927,-0.0375 -0.18544,-0.0749 -0.27816,-0.11238 -0.18543,-0.0749 -0.37087,-0.14984 -0.64903,-0.26222 -0.18543,-0.0749 -0.37087,-0.14984 -0.55631,-0.22477 -0.0927,-0.0375 -0.27815,-0.11238 -0.37087,-0.14984 -0.83447,-0.33714 -1.61367,-0.54411 -2.4856,-0.78854 -0.0927,-0.0375 -0.18544,-0.0749 -0.27815,-0.11238 -0.18544,-0.0749 -0.50106,-0.0946 -0.68649,-0.16951 -0.18544,-0.0749 -0.27816,-0.11238 -0.50106,-0.0946 -0.22289,0.0178 -0.40833,-0.0571 -0.59377,-0.13205 -0.27815,-0.11238 -0.50105,-0.0946 -0.7792,-0.20696 -0.0927,-0.0375 -0.18544,-0.0749 -0.31562,-0.0197 -9.35236,-1.94509 -19.27223,-0.88386 -28.23865,3.69033 -0.13018,0.0553 -0.26036,0.11052 -0.29782,0.20324 -0.26036,0.11051 -0.428,0.25849 -0.6509,0.27629 -0.26035,0.11051 -0.42799,0.25849 -0.68835,0.369 -0.0375,0.0927 -0.13018,0.0553 -0.16764,0.14798 -0.55818,0.31375 -1.11636,0.6275 -1.67453,0.94125 l 0,0 c -1.58181,0.9787 -3.14583,2.18031 -4.67238,3.2892 l -12.05339,-4.86989 c -2.78156,-1.12382 -6.03603,0.25763 -7.15985,3.03918 l -10.45153,25.86843 c -1.12382,2.78155 0.25763,6.03602 3.03918,7.15984 l 25.86843,10.45153 c 2.78155,1.12382 6.03603,-0.25763 7.15985,-3.03918 l 10.45152,-25.86843 c 1.12382,-2.78155 -0.25762,-6.03602 -3.03917,-7.15984 l -8.80825,-3.55877 c 0.89345,-0.6097 1.82437,-1.31212 2.81055,-1.88436 0.55817,-0.31375 1.11635,-0.6275 1.67453,-0.94125 0.13018,-0.0553 0.13018,-0.0553 0.26035,-0.11051 0.52072,-0.22103 0.94872,-0.47952 1.46944,-0.70056 0.26035,-0.11051 0.52071,-0.22103 0.68835,-0.369 0.26036,-0.11052 0.39054,-0.16578 0.6509,-0.27629 6.24859,-2.65237 13.08536,-3.55716 19.69362,-2.82861 0.2229,-0.0178 0.40834,0.0571 0.63124,0.0393 0.40833,0.0571 0.81666,0.11425 1.225,0.17137 0.31561,0.0197 0.68649,0.16951 1.0021,0.18917 0.0927,0.0375 0.31562,0.0197 0.40834,0.0571 0.50105,0.0946 1.0021,0.18917 1.55841,0.41393 0.0927,0.0375 0.18544,0.0749 0.27816,0.11238 0.59377,0.13205 1.05736,0.31935 1.65113,0.4514 l 0.0927,0.0375 c 0.46359,0.1873 1.05736,0.31935 1.52096,0.50665 0.0927,0.0375 0.18543,0.0749 0.27815,0.11238 0.46359,0.18731 0.92718,0.37461 1.39078,0.56191 0.55631,0.22477 1.0199,0.41207 1.57621,0.63683 0.0927,0.0375 0.0927,0.0375 0.18544,0.0749 14.18218,6.8085 22.74799,21.37822 22.24993,36.49219 -0.0375,0.0927 -0.0375,0.0927 0.0178,0.2229 -0.002,0.53851 -0.0965,1.03956 -0.0609,1.48536 0.0178,0.2229 -0.0571,0.40833 -0.0393,0.63123 -0.0571,0.40833 -0.0768,0.72395 -0.13392,1.13228 -0.0197,0.31562 -0.13204,0.59377 -0.11424,0.81667 -0.0197,0.31562 -0.13205,0.59377 -0.15171,0.90939 -0.0197,0.31561 -0.16951,0.68649 -0.18917,1.0021 -0.0197,0.31562 -0.0946,0.50106 -0.20697,0.77921 -0.0571,0.40834 -0.16951,0.68649 -0.22663,1.09483 -0.11238,0.27815 -0.13205,0.59377 -0.20697,0.7792 -0.11238,0.27816 -0.1695,0.68649 -0.28189,0.96465 -0.11238,0.27815 -0.1695,0.68649 -0.28188,0.96464 -0.11239,0.27816 -0.22477,0.55631 -0.24443,0.87193 -0.14984,0.37087 -0.29969,0.74175 -0.44953,1.11262 -0.0749,0.18544 -0.14984,0.37087 -0.22476,0.55631 -0.18731,0.46359 -0.37461,0.92718 -0.59937,1.48349 -0.0375,0.0927 -0.0749,0.18544 -0.14985,0.37088 -5.85606,12.62563 -17.76881,20.75498 -30.8467,22.15808 -0.0927,-0.0375 -0.2229,0.0178 -0.2229,0.0178 -0.44579,0.0356 -0.98431,0.0337 -1.46756,0.16204 -0.2229,0.0178 -0.53851,-0.002 -0.79887,0.10865 -0.31562,-0.0197 -0.53852,-0.002 -0.89159,0.0712 -0.4458,0.0356 -0.85413,-0.0215 -1.20721,0.0515 -0.13018,0.0553 -0.31561,-0.0197 -0.44579,0.0356 -0.53852,-0.002 -1.07703,-0.004 -1.57808,-0.0983 l -0.0927,-0.0375 c -1.80098,-0.0805 -3.52703,-0.34648 -5.21563,-0.70516 l 0,0 c -2.28236,-0.49072 -4.61999,-1.11162 -6.93794,-2.04813 -7.78835,-3.1467 -14.19438,-8.64695 -18.57094,-15.70001 l 6.32725,-3.91484 -13.17348,-3.16536 -3.16536,13.17348 6.15961,-3.76686 c 4.80082,7.8716 12.11438,14.06207 20.73719,17.54591 5.74854,2.32256 11.70591,3.3274 17.61176,3.12504 l 0.0927,0.0375 c 0.53851,0.002 1.11448,-0.089 1.653,-0.0871 0.22289,-0.0178 0.35307,-0.073 0.53851,0.002 0.44579,-0.0356 0.89159,-0.0712 1.24467,-0.14425 0.35307,-0.073 0.66869,-0.0534 0.92905,-0.1639 0,0 0.0927,0.0375 0.13018,-0.0553 5.68481,-0.72308 11.13267,-2.72829 16.19372,-5.64475 7.49886,-4.41216 13.09183,-10.78073 16.64499,-17.97344 0,0 0,0 0.0375,-0.0927 0.11238,-0.27816 0.26223,-0.64903 0.46733,-0.88973 0.0375,-0.0927 0.0749,-0.18543 0.0749,-0.18543 0.11238,-0.27816 0.1873,-0.4636 0.29968,-0.74175 0.0375,-0.0927 0.0749,-0.18544 0.14985,-0.37087 0.0749,-0.18544 0.14984,-0.37088 0.26222,-0.64903 0.0375,-0.0927 0.0375,-0.0927 0.0749,-0.18544 0.0375,-0.0927 0.0749,-0.18544 0.11238,-0.27816 z m -54.46241,-38.18226 -10.45152,25.86843 c -0.37461,0.92718 -1.41604,1.36924 -2.34323,0.99464 l -25.86843,-10.45153 c -0.92718,-0.3746 -1.36924,-1.41603 -0.99464,-2.34322 l 10.45153,-25.86843 c 0.37461,-0.92718 1.41604,-1.36924 2.34322,-0.99464 l 25.86843,10.45153 c 0.83447,0.33714 1.36925,1.41604 0.99464,2.34322 z"
     id="path3094"
     inkscape:connector-curvature="0" /><circle
     cx="-441.60001"
     cy="510.60001"
     r="7.3000002"
     id="circle3096"
     sodipodi:cx="-441.60001"
     sodipodi:cy="510.60001"
     sodipodi:rx="7.3000002"
     sodipodi:ry="7.3000002"
     transform="matrix(0.92718385,0.37460659,-0.37460659,0.92718385,161.83368,191.23789)" /></svg>