<?xml version="1.0" encoding="UTF-8" standalone="no"?>
<svg
   xmlns:dc="http://purl.org/dc/elements/1.1/"
   xmlns:cc="http://creativecommons.org/ns#"
   xmlns:rdf="http://www.w3.org/1999/02/22-rdf-syntax-ns#"
   xmlns:svg="http://www.w3.org/2000/svg"
   xmlns="http://www.w3.org/2000/svg"
   xmlns:sodipodi="http://sodipodi.sourceforge.net/DTD/sodipodi-0.dtd"
   xmlns:inkscape="http://www.inkscape.org/namespaces/inkscape"
   version="1.1"
   x="0px"
   y="0px"
   viewBox="-461 463 100 100"
   style="enable-background:new -461 463 100 100;"
   xml:space="preserve"
   id="svg3092"
   inkscape:version="0.48.4 r9939"
   width="100%"
   height="100%"
   sodipodi:docname="backup14.svg"><metadata
     id="metadata3102"><rdf:RDF><cc:Work
         rdf:about=""><dc:format>image/svg+xml</dc:format><dc:type
           rdf:resource="http://purl.org/dc/dcmitype/StillImage" /><dc:title></dc:title></cc:Work></rdf:RDF></metadata><defs
     id="defs3100" /><sodipodi:namedview
     pagecolor="#ffffff"
     bordercolor="#666666"
     borderopacity="1"
     objecttolerance="10"
     gridtolerance="10"
     guidetolerance="10"
     inkscape:pageopacity="0"
     inkscape:pageshadow="2"
     inkscape:window-width="669"
     inkscape:window-height="480"
     id="namedview3098"
     showgrid="false"
     inkscape:zoom="2.36"
     inkscape:cx="50"
     inkscape:cy="50"
     inkscape:window-x="0"
     inkscape:window-y="24"
     inkscape:window-maximized="0"
     inkscape:current-layer="svg3092" /><path
     d="m -364.75319,492.89152 c -0.0749,-0.18544 -0.11238,-0.27816 -0.1873,-0.4636 -0.0749,-0.18543 -0.14985,-0.37087 -0.26223,-0.64903 -0.0375,-0.0927 -0.0749,-0.18543 -0.11238,-0.27815 -0.11238,-0.27816 -0.1873,-0.46359 -0.29968,-0.74175 -0.0375,-0.0927 -0.0375,-0.0927 -0.0749,-0.18543 -1.34671,-2.79935 -2.97159,-5.48632 -4.89241,-7.83801 -5.57704,-7.12998 -13.39525,-12.5995 -22.74474,-15.18541 -9.08914,-2.4754 -18.33471,-1.86769 -26.60631,1.15069 -0.0927,0.0375 -0.18544,0.0749 -0.18544,0.0749 -0.27816,0.11238 -0.46359,0.1873 -0.74175,0.29969 -0.0927,0.0375 -0.0927,0.0375 -0.18543,0.0749 -0.0927,0.0375 -0.18544,0.0749 -0.27816,0.11238 -0.18544,0.0749 -0.37087,0.14984 -0.64903,0.26222 -0.18543,0.0749 -0.37087,0.14985 -0.55631,0.22477 -0.0927,0.0375 -0.27815,0.11238 -0.37087,0.14984 -0.83447,0.33715 -1.53875,0.72955 -2.33576,1.15941 -0.0927,0.0375 -0.18544,0.0749 -0.27815,0.11239 -0.18544,0.0749 -0.42614,0.28002 -0.61157,0.35494 -0.18544,0.0749 -0.27816,0.11238 -0.42613,0.28002 -0.14798,0.16764 -0.33342,0.24256 -0.51885,0.31748 -0.27816,0.11238 -0.42613,0.28002 -0.70429,0.39241 -0.0927,0.0375 -0.18544,0.0749 -0.24069,0.2051 -8.0787,5.09751 -14.47727,12.75181 -17.74967,22.27081 -0.0553,0.13018 -0.11052,0.26036 -0.0731,0.35308 -0.11051,0.26036 -0.12831,0.48326 -0.27628,0.6509 -0.11052,0.26035 -0.12832,0.48325 -0.23883,0.74361 0.0375,0.0927 -0.0553,0.13018 -0.0178,0.2229 -0.18357,0.61343 -0.36714,1.22687 -0.55071,1.8403 l 0,0 c -0.45799,1.80284 -0.74835,3.75366 -1.07616,5.61176 l -12.05339,4.86989 c -2.78155,1.12382 -4.16299,4.3783 -3.03917,7.15985 l 10.45152,25.86843 c 1.12382,2.78155 4.3783,4.16299 7.15985,3.03917 l 25.86843,-10.45152 c 2.78155,-1.12382 4.16299,-4.3783 3.03917,-7.15985 l -10.45152,-25.86843 c -1.12382,-2.78155 -4.3783,-4.16299 -7.15985,-3.03917 l -8.80825,3.55876 c 0.21917,-1.05923 0.40087,-2.21118 0.71276,-3.30787 0.18357,-0.61343 0.36714,-1.22687 0.55071,-1.8403 0.0553,-0.13018 0.0553,-0.13018 0.11051,-0.26036 0.22103,-0.52072 0.34934,-1.00397 0.57038,-1.52469 0.11051,-0.26036 0.22103,-0.52072 0.23882,-0.74361 0.11052,-0.26036 0.16578,-0.39054 0.27629,-0.6509 2.65237,-6.24859 6.94181,-11.64866 12.2015,-15.71507 0.14797,-0.16764 0.33341,-0.24256 0.48139,-0.4102 0.33341,-0.24256 0.66682,-0.48512 1.00024,-0.72768 0.24069,-0.2051 0.61156,-0.35495 0.85226,-0.56005 0.0927,-0.0375 0.24069,-0.2051 0.33341,-0.24256 0.42613,-0.28002 0.85226,-0.56004 1.40857,-0.78481 0.0927,-0.0375 0.18544,-0.0749 0.27816,-0.11238 0.51885,-0.31748 0.98244,-0.50478 1.50129,-0.82227 l 0.0927,-0.0375 c 0.46359,-0.1873 0.98244,-0.50478 1.44603,-0.69208 0.0927,-0.0375 0.18544,-0.0749 0.27816,-0.11239 0.46359,-0.1873 0.92718,-0.3746 1.39077,-0.56191 0.55631,-0.22476 1.01991,-0.41206 1.57622,-0.63683 0.0927,-0.0375 0.0927,-0.0375 0.18543,-0.0749 14.9314,-4.95414 31.21411,-0.42387 41.35488,10.79418 0.0375,0.0927 0.0375,0.0927 0.16764,0.14798 0.37274,0.38867 0.65276,0.8148 0.98804,1.11075 0.16764,0.14798 0.24256,0.33342 0.4102,0.48139 0.24256,0.33341 0.44766,0.57411 0.69022,0.90752 0.2051,0.2407 0.31748,0.51885 0.48512,0.66683 0.2051,0.24069 0.31749,0.51885 0.52259,0.75954 0.2051,0.2407 0.35494,0.61157 0.56004,0.85226 0.2051,0.2407 0.28002,0.42614 0.3924,0.70429 0.24256,0.33341 0.35495,0.61157 0.59751,0.94498 0.11238,0.27816 0.31748,0.51885 0.3924,0.70429 0.11238,0.27815 0.35494,0.61157 0.46733,0.88972 0.11238,0.27816 0.35494,0.61157 0.46732,0.88972 0.11238,0.27816 0.22476,0.55632 0.42987,0.79701 0.14984,0.37087 0.29968,0.74175 0.44952,1.11262 0.0749,0.18544 0.14985,0.37087 0.22477,0.55631 0.1873,0.46359 0.3746,0.92718 0.59937,1.48349 0.0375,0.0927 0.0749,0.18544 0.14984,0.37088 4.558,13.15008 1.63581,27.27314 -6.79696,37.36711 -0.0927,0.0375 -0.14798,0.16764 -0.14798,0.16764 -0.29595,0.33528 -0.68462,0.70802 -0.94311,1.13602 -0.14798,0.16764 -0.38867,0.37274 -0.49919,0.6331 -0.24069,0.2051 -0.38867,0.37274 -0.5919,0.67056 -0.29595,0.33528 -0.62937,0.57784 -0.8326,0.87566 -0.0553,0.13018 -0.24069,0.2051 -0.29595,0.33528 -0.38867,0.37274 -0.77734,0.74548 -1.20348,1.0255 l -0.0927,0.0375 c -1.35145,1.19314 -2.77782,2.20085 -4.24165,3.11583 l 0,0 c -1.98268,1.23247 -4.09554,2.40968 -6.4135,3.3462 -7.78835,3.14669 -16.21725,3.64015 -24.26496,1.60681 l 1.83197,-7.21137 -11.67505,6.8741 6.8741,11.67505 1.81417,-6.98848 c 8.9215,2.32742 18.48269,1.70006 27.1055,-1.78378 5.74854,-2.32257 10.73193,-5.73808 14.83967,-9.9862 l 0.0927,-0.0375 c 0.38867,-0.37274 0.73988,-0.8382 1.12855,-1.21094 0.14798,-0.16764 0.20323,-0.29782 0.38867,-0.37274 0.29595,-0.33528 0.59191,-0.67056 0.79514,-0.96838 0.20323,-0.29782 0.44393,-0.50292 0.55444,-0.76327 0,0 0.0927,-0.0375 0.0553,-0.13018 3.58702,-4.46915 6.11295,-9.69598 7.72762,-15.30961 2.32929,-8.38298 1.92855,-16.84935 -0.51199,-24.49158 0,0 0,0 -0.0375,-0.0927 -0.11239,-0.27816 -0.26223,-0.64903 -0.28189,-0.96465 -0.0375,-0.0927 -0.0749,-0.18543 -0.0749,-0.18543 -0.11239,-0.27816 -0.18731,-0.4636 -0.29969,-0.74175 -0.0375,-0.0927 -0.0749,-0.18544 -0.14984,-0.37087 -0.0749,-0.18544 -0.14984,-0.37088 -0.26223,-0.64903 -0.0375,-0.0927 -0.0375,-0.0927 -0.0749,-0.18544 -0.0375,-0.0927 -0.0749,-0.18544 -0.11238,-0.27815 z m -65.70061,10.36674 10.45152,25.86843 c 0.37461,0.92719 -0.0675,1.96862 -0.99464,2.34323 l -25.86843,10.45152 c -0.92718,0.37461 -1.96861,-0.0675 -2.34322,-0.99464 l -10.45152,-25.86843 c -0.37461,-0.92718 0.0675,-1.96861 0.99464,-2.34322 l 25.86843,-10.45152 c 0.83446,-0.33715 1.96861,0.0675 2.34322,0.99463 z"
     id="path3094"
     inkscape:connector-curvature="0" /><circle
     cx="-441.60001"
     cy="510.60001"
     r="7.3000002"
     id="circle3096"
     sodipodi:cx="-441.60001"
     sodipodi:cy="510.60001"
     sodipodi:rx="7.3000002"
     sodipodi:ry="7.3000002"
     transform="matrix(0.92718385,-0.37460659,0.37460659,0.92718385,-221.68855,-116.68873)" /></svg>