<?xml version="1.0" encoding="UTF-8" standalone="no"?>
<svg
   xmlns:dc="http://purl.org/dc/elements/1.1/"
   xmlns:cc="http://creativecommons.org/ns#"
   xmlns:rdf="http://www.w3.org/1999/02/22-rdf-syntax-ns#"
   xmlns:svg="http://www.w3.org/2000/svg"
   xmlns="http://www.w3.org/2000/svg"
   xmlns:sodipodi="http://sodipodi.sourceforge.net/DTD/sodipodi-0.dtd"
   xmlns:inkscape="http://www.inkscape.org/namespaces/inkscape"
   version="1.1"
   x="0px"
   y="0px"
   viewBox="-461 463 100 100"
   style="enable-background:new -461 463 100 100;"
   xml:space="preserve"
   id="svg3092"
   inkscape:version="0.48.4 r9939"
   width="100%"
   height="100%"
   sodipodi:docname="backup6.svg"><metadata
     id="metadata3102"><rdf:RDF><cc:Work
         rdf:about=""><dc:format>image/svg+xml</dc:format><dc:type
           rdf:resource="http://purl.org/dc/dcmitype/StillImage" /><dc:title></dc:title></cc:Work></rdf:RDF></metadata><defs
     id="defs3100" /><sodipodi:namedview
     pagecolor="#ffffff"
     bordercolor="#666666"
     borderopacity="1"
     objecttolerance="10"
     gridtolerance="10"
     guidetolerance="10"
     inkscape:pageopacity="0"
     inkscape:pageshadow="2"
     inkscape:window-width="669"
     inkscape:window-height="480"
     id="namedview3098"
     showgrid="false"
     inkscape:zoom="2.36"
     inkscape:cx="50"
     inkscape:cy="50"
     inkscape:window-x="0"
     inkscape:window-y="24"
     inkscape:window-maximized="0"
     inkscape:current-layer="svg3092" /><path
     d="m -411.3,461.9 c -0.2,0 -0.3,0 -0.5,0 -0.2,0 -0.4,0 -0.7,0 -0.1,0 -0.2,0 -0.3,0 -0.3,0 -0.5,0 -0.8,0 -0.1,0 -0.1,0 -0.2,0 -3.1,0.2 -6.2,0.7 -9.1,1.6 -8.7,2.5 -16.7,7.7 -22.6,15.4 -5.7,7.5 -8.6,16.3 -8.9,25.1 0,0.1 0,0.2 0,0.2 0,0.3 0,0.5 0,0.8 0,0.1 0,0.1 0,0.2 0,0.1 0,0.2 0,0.3 0,0.2 0,0.4 0,0.7 0,0.2 0,0.4 0,0.6 0,0.1 0,0.3 0,0.4 0,0.9 0.1,1.7 0.2,2.6 0,0.1 0,0.2 0,0.3 0,0.2 0.1,0.5 0.1,0.7 0,0.2 0,0.3 0.1,0.5 0.1,0.2 0.1,0.4 0.1,0.6 0,0.3 0.1,0.5 0.1,0.8 0,0.1 0,0.2 0.1,0.3 1.7,9.4 6.4,18.2 14,24.8 0.1,0.1 0.2,0.2 0.3,0.2 0.2,0.2 0.4,0.3 0.5,0.5 0.2,0.2 0.4,0.3 0.6,0.5 0.1,0 0.1,0.1 0.2,0.1 0.5,0.4 1,0.8 1.5,1.2 l 0,0 c 1.5,1.1 3.2,2.1 4.8,3.1 l 0,13 c 0,3 2.5,5.5 5.5,5.5 l 27.9,0 c 3,0 5.5,-2.5 5.5,-5.5 l 0,-27.9 c 0,-3 -2.5,-5.5 -5.5,-5.5 l -27.9,0 c -3,0 -5.5,2.5 -5.5,5.5 l 0,9.5 c -0.9,-0.6 -1.9,-1.2 -2.8,-1.9 -0.5,-0.4 -1,-0.8 -1.5,-1.2 -0.1,-0.1 -0.1,-0.1 -0.2,-0.2 -0.4,-0.4 -0.8,-0.7 -1.2,-1.1 -0.2,-0.2 -0.4,-0.4 -0.6,-0.5 -0.2,-0.2 -0.3,-0.3 -0.5,-0.5 -4.8,-4.8 -8.2,-10.8 -10,-17.2 -0.1,-0.2 -0.1,-0.4 -0.2,-0.6 -0.1,-0.4 -0.2,-0.8 -0.3,-1.2 -0.1,-0.3 -0.1,-0.7 -0.2,-1 0,-0.1 -0.1,-0.3 -0.1,-0.4 -0.1,-0.5 -0.2,-1 -0.2,-1.6 0,-0.1 0,-0.2 0,-0.3 -0.1,-0.6 -0.1,-1.1 -0.2,-1.7 l 0,-0.1 c 0,-0.5 -0.1,-1.1 -0.1,-1.6 0,-0.1 0,-0.2 0,-0.3 0,-0.5 0,-1 0,-1.5 0,-0.6 0,-1.1 0,-1.7 0,-0.1 0,-0.1 0,-0.2 1,-15.7 11.3,-29.1 25.5,-34.3 0.1,0 0.1,0 0.2,-0.1 0.5,-0.2 1,-0.3 1.4,-0.5 0.2,-0.1 0.4,-0.1 0.6,-0.2 0.4,-0.1 0.7,-0.2 1.1,-0.3 0.3,-0.1 0.6,-0.1 0.8,-0.2 0.3,-0.1 0.6,-0.1 0.9,-0.2 0.3,-0.1 0.7,-0.1 1,-0.2 0.3,-0.1 0.5,-0.1 0.8,-0.1 0.4,-0.1 0.7,-0.1 1.1,-0.2 0.3,0 0.6,-0.1 0.8,-0.1 0.3,0 0.7,-0.1 1,-0.1 0.3,0 0.7,-0.1 1,-0.1 0.3,0 0.6,0 0.9,-0.1 0.4,0 0.8,0 1.2,0 0.2,0 0.4,0 0.6,0 0.5,0 1,0 1.6,0 0.1,0 0.2,0 0.4,0 13.9,0.7 25.9,8.7 32.1,20.3 0,0.1 0.1,0.2 0.1,0.2 0.2,0.4 0.4,0.9 0.7,1.3 0.1,0.2 0.2,0.5 0.4,0.7 0.1,0.3 0.2,0.5 0.4,0.8 0.2,0.4 0.3,0.8 0.5,1.1 0.1,0.1 0.1,0.3 0.2,0.4 0.2,0.5 0.4,1 0.5,1.5 l 0,0.1 c 0.6,1.7 1,3.4 1.3,5.1 l 0,0 c 0.4,2.3 0.7,4.7 0.7,7.2 0,8.4 -2.7,16.4 -7.6,23.1 l -6,-4.4 2,13.4 13.4,-2 -5.8,-4.3 c 5.5,-7.4 8.5,-16.5 8.5,-25.8 0,-6.2 -1.3,-12.1 -3.7,-17.5 l 0,-0.1 c -0.2,-0.5 -0.5,-1 -0.7,-1.5 -0.1,-0.2 -0.2,-0.3 -0.2,-0.5 -0.2,-0.4 -0.4,-0.8 -0.6,-1.1 -0.2,-0.3 -0.3,-0.6 -0.5,-0.8 0,0 0,-0.1 -0.1,-0.1 -2.8,-5 -6.7,-9.3 -11.3,-12.9 -6.9,-5.3 -14.9,-8.1 -22.9,-8.7 0,0 0,0 -0.1,0 -0.3,0 -0.7,0 -1,-0.1 -0.1,0 -0.2,0 -0.2,0 -0.3,0 -0.5,0 -0.8,0 -0.1,0 -0.2,0 -0.4,0 -0.2,0 -0.4,0 -0.7,0 -0.1,0 -0.1,0 -0.2,0 -0.1,0 -0.2,0 -0.3,0 z m -15,64.8 27.9,0 c 1,0 1.8,0.8 1.8,1.8 l 0,27.9 c 0,1 -0.8,1.8 -1.8,1.8 l -27.9,0 c -1,0 -1.8,-0.8 -1.8,-1.8 l 0,-27.9 c 0,-0.9 0.8,-1.8 1.8,-1.8 z"
     id="path3094"
     inkscape:connector-curvature="0" /><circle
     cx="-441.60001"
     cy="510.60001"
     r="7.3000002"
     id="circle3096"
     sodipodi:cx="-441.60001"
     sodipodi:cy="510.60001"
     sodipodi:rx="7.3000002"
     sodipodi:ry="7.3000002"
     transform="matrix(0,-1,1,0,-922.9,100.9)" /></svg>