<?xml version="1.0" encoding="UTF-8" standalone="no"?>
<svg
   xmlns:dc="http://purl.org/dc/elements/1.1/"
   xmlns:cc="http://creativecommons.org/ns#"
   xmlns:rdf="http://www.w3.org/1999/02/22-rdf-syntax-ns#"
   xmlns:svg="http://www.w3.org/2000/svg"
   xmlns="http://www.w3.org/2000/svg"
   xmlns:sodipodi="http://sodipodi.sourceforge.net/DTD/sodipodi-0.dtd"
   xmlns:inkscape="http://www.inkscape.org/namespaces/inkscape"
   version="1.1"
   x="0px"
   y="0px"
   viewBox="-461 463 100 100"
   style="enable-background:new -461 463 100 100;"
   xml:space="preserve"
   id="svg3092"
   inkscape:version="0.48.4 r9939"
   width="100%"
   height="100%"
   sodipodi:docname="backup6.svg"><metadata
     id="metadata3102"><rdf:RDF><cc:Work
         rdf:about=""><dc:format>image/svg+xml</dc:format><dc:type
           rdf:resource="http://purl.org/dc/dcmitype/StillImage" /><dc:title></dc:title></cc:Work></rdf:RDF></metadata><defs
     id="defs3100" /><sodipodi:namedview
     pagecolor="#ffffff"
     bordercolor="#666666"
     borderopacity="1"
     objecttolerance="10"
     gridtolerance="10"
     guidetolerance="10"
     inkscape:pageopacity="0"
     inkscape:pageshadow="2"
     inkscape:window-width="669"
     inkscape:window-height="480"
     id="namedview3098"
     showgrid="false"
     inkscape:zoom="2.36"
     inkscape:cx="50"
     inkscape:cy="50"
     inkscape:window-x="0"
     inkscape:window-y="24"
     inkscape:window-maximized="0"
     inkscape:current-layer="svg3092" /><path
     d="m -456.90802,531.71271 c 0.0781,0.1841 0.11722,0.27615 0.19536,0.46025 0.0782,0.1841 0.15629,0.3682 0.27351,0.64435 0.0391,0.092 0.0781,0.1841 0.11722,0.27616 0.11722,0.27615 0.19537,0.46025 0.31259,0.7364 0.0391,0.092 0.0391,0.092 0.0781,0.1841 1.39537,2.77542 3.06689,5.43362 5.02847,7.75142 5.70062,7.03157 13.61309,12.36381 23.00629,14.78615 9.13096,2.3164 18.36452,1.54743 26.58218,-1.61485 0.092,-0.0391 0.1841,-0.0782 0.1841,-0.0782 0.27616,-0.11722 0.46026,-0.19537 0.73641,-0.31258 0.0921,-0.0391 0.0921,-0.0391 0.1841,-0.0782 0.0921,-0.0391 0.1841,-0.0781 0.27615,-0.11722 0.1841,-0.0782 0.3682,-0.15629 0.64435,-0.27351 0.1841,-0.0782 0.36821,-0.15629 0.55231,-0.23444 0.092,-0.0391 0.27615,-0.11722 0.3682,-0.15629 0.82845,-0.35166 1.52578,-0.7563 2.31516,-1.2 0.0921,-0.0391 0.18411,-0.0782 0.27616,-0.11722 0.1841,-0.0782 0.42118,-0.28742 0.60528,-0.36557 0.1841,-0.0781 0.27615,-0.11722 0.42118,-0.28741 0.14502,-0.1702 0.32912,-0.24835 0.51323,-0.32649 0.27615,-0.11722 0.42117,-0.28742 0.69733,-0.40464 0.0921,-0.0391 0.1841,-0.0781 0.23707,-0.20927 7.98851,-5.23773 14.25251,-13.00253 17.35829,-22.5772 0.053,-0.13112 0.10595,-0.26224 0.0669,-0.35429 0.10596,-0.26225 0.11986,-0.48543 0.26489,-0.65562 0.10595,-0.26225 0.11986,-0.48542 0.22581,-0.74767 -0.0391,-0.092 0.053,-0.13112 0.0139,-0.22318 0.17283,-0.61654 0.34567,-1.23308 0.5185,-1.84963 l 0,0 c 0.42646,-1.81056 0.68273,-3.76615 0.97806,-5.62969 l 11.96656,-5.0795 c 2.76152,-1.1722 4.08595,-4.45029 2.91376,-7.2118 l -10.9014,-25.68209 c -1.17219,-2.76151 -4.45028,-4.08595 -7.2118,-2.91375 l -25.68208,10.9014 c -2.76152,1.17219 -4.08595,4.45028 -2.91376,7.21179 l 10.9014,25.68209 c 1.17219,2.76151 4.45028,4.08595 7.2118,2.91375 l 8.74479,-3.71194 c -0.20064,1.06289 -0.36221,2.21784 -0.65491,3.3198 -0.17283,0.61655 -0.34567,1.23309 -0.51851,1.84964 -0.053,0.13112 -0.053,0.13112 -0.10595,0.26224 -0.21191,0.5245 -0.33177,1.00992 -0.54368,1.53441 -0.10595,0.26225 -0.21191,0.5245 -0.22581,0.74767 -0.10596,0.26225 -0.15894,0.39337 -0.26489,0.65562 -2.54291,6.29393 -6.73746,11.76804 -11.92537,15.92562 -0.14503,0.1702 -0.32913,0.24835 -0.47416,0.41854 -0.32913,0.24835 -0.65826,0.49669 -0.98739,0.74503 -0.23707,0.20927 -0.60528,0.36556 -0.84235,0.57483 -0.092,0.0391 -0.23708,0.20927 -0.32913,0.24835 -0.42118,0.28741 -0.84236,0.57483 -1.39466,0.80927 -0.0921,0.0391 -0.18411,0.0781 -0.27616,0.11722 -0.51323,0.32649 -0.97348,0.52185 -1.48671,0.84834 l -0.0921,0.0391 c -0.46025,0.19537 -0.97348,0.52186 -1.43373,0.71722 -0.0921,0.0391 -0.1841,0.0781 -0.27615,0.11722 -0.46026,0.19537 -0.92051,0.39073 -1.38076,0.5861 -0.55231,0.23444 -1.01256,0.4298 -1.56486,0.66424 -0.0921,0.0391 -0.0921,0.0391 -0.1841,0.0781 -14.84266,5.21397 -31.20195,0.96857 -41.53696,-10.0708 -0.0391,-0.092 -0.0391,-0.092 -0.1702,-0.14502 -0.37946,-0.38211 -0.66688,-0.80329 -1.00727,-1.09335 -0.1702,-0.14502 -0.24835,-0.32912 -0.41854,-0.47415 -0.24835,-0.32913 -0.45762,-0.56621 -0.70596,-0.89534 -0.20927,-0.23708 -0.32649,-0.51323 -0.49669,-0.65826 -0.20927,-0.23707 -0.32648,-0.51323 -0.53575,-0.7503 -0.20927,-0.23708 -0.36557,-0.60528 -0.57484,-0.84236 -0.20927,-0.23708 -0.28741,-0.42118 -0.40463,-0.69733 -0.24834,-0.32913 -0.36556,-0.60528 -0.61391,-0.93441 -0.11722,-0.27615 -0.32649,-0.51323 -0.40463,-0.69733 -0.11722,-0.27615 -0.36556,-0.60528 -0.48278,-0.88144 -0.11722,-0.27615 -0.36557,-0.60528 -0.48279,-0.88143 -0.11722,-0.27615 -0.23443,-0.5523 -0.4437,-0.78938 -0.1563,-0.3682 -0.31259,-0.7364 -0.46888,-1.1046 -0.0781,-0.1841 -0.15629,-0.36821 -0.23444,-0.55231 -0.19537,-0.46025 -0.39073,-0.9205 -0.62517,-1.4728 -0.0391,-0.0921 -0.0781,-0.18411 -0.15629,-0.36821 -4.78681,-13.06853 -2.11155,-27.24043 6.14378,-37.48004 0.0921,-0.0391 0.14502,-0.1702 0.14502,-0.1702 0.29006,-0.34039 0.67217,-0.71986 0.92315,-1.1523 0.14503,-0.1702 0.38211,-0.37947 0.48806,-0.64172 0.23708,-0.20927 0.38211,-0.37947 0.58011,-0.68079 0.29006,-0.34039 0.61919,-0.58873 0.81719,-0.89005 0.053,-0.13113 0.23708,-0.20927 0.29006,-0.3404 0.3821,-0.37946 0.76421,-0.75893 1.18539,-1.04634 l 0.092,-0.0391 c 1.33042,-1.21654 2.73898,-2.24899 4.18662,-3.18938 l 0,0 c 1.96087,-1.26689 4.05286,-2.48079 6.35413,-3.45762 7.73224,-3.28214 16.15125,-3.92263 24.23322,-2.03005 l -1.70584,7.24224 11.5533,-7.0768 -7.0768,-11.55331 -1.69193,7.01908 c -8.96076,-2.17137 -18.50955,-1.37723 -27.07024,2.25657 -5.70713,2.42253 -10.63016,5.9245 -14.66313,10.24366 l -0.0921,0.0391 c -0.38211,0.37947 -0.72514,0.85099 -1.10725,1.23045 -0.14503,0.1702 -0.198,0.30132 -0.38211,0.37947 -0.29005,0.34039 -0.58011,0.68079 -0.77811,0.98211 -0.19801,0.30132 -0.43509,0.51059 -0.54104,0.77283 0,0 -0.092,0.0391 -0.053,0.13113 -3.50847,4.53107 -5.94279,9.80118 -7.45925,15.44213 -2.18263,8.42236 -1.63419,16.88045 0.93935,24.47893 0,0 0,0 0.0391,0.092 0.11721,0.27615 0.27351,0.64435 0.29868,0.95958 0.0391,0.092 0.0781,0.1841 0.0781,0.1841 0.11722,0.27615 0.19537,0.46025 0.31259,0.7364 0.0391,0.092 0.0781,0.1841 0.15629,0.3682 0.0781,0.1841 0.15629,0.3682 0.27351,0.64436 0.0391,0.092 0.0391,0.092 0.0781,0.1841 0.0391,0.092 0.0781,0.1841 0.11722,0.27615 z m 65.50968,-11.51181 -10.9014,-25.68208 c -0.39073,-0.92051 0.0331,-1.9695 0.95359,-2.36023 l 25.68209,-10.9014 c 0.9205,-0.39073 1.96949,0.0331 2.36022,0.9536 l 10.9014,25.68208 c 0.39073,0.92051 -0.0331,1.9695 -0.95359,2.36023 l -25.68209,10.9014 c -0.82845,0.35165 -1.96949,-0.0331 -2.36022,-0.9536 z"
     id="path3094"
     inkscape:connector-curvature="0" /><circle
     cx="-441.60001"
     cy="510.60001"
     r="7.3000002"
     id="circle3096"
     sodipodi:cx="-441.60001"
     sodipodi:cy="510.60001"
     sodipodi:rx="7.3000002"
     sodipodi:ry="7.3000002"
     transform="matrix(-0.92050485,0.39073113,-0.39073113,-0.92050485,-589.31223,1143.6969)" /></svg>