<?xml version="1.0" encoding="UTF-8" standalone="no"?>
<svg
   xmlns:dc="http://purl.org/dc/elements/1.1/"
   xmlns:cc="http://creativecommons.org/ns#"
   xmlns:rdf="http://www.w3.org/1999/02/22-rdf-syntax-ns#"
   xmlns:svg="http://www.w3.org/2000/svg"
   xmlns="http://www.w3.org/2000/svg"
   xmlns:sodipodi="http://sodipodi.sourceforge.net/DTD/sodipodi-0.dtd"
   xmlns:inkscape="http://www.inkscape.org/namespaces/inkscape"
   version="1.1"
   x="0px"
   y="0px"
   viewBox="-461 463 100 100"
   style="enable-background:new -461 463 100 100;"
   xml:space="preserve"
   id="svg3092"
   inkscape:version="0.48.4 r9939"
   width="100%"
   height="100%"
   sodipodi:docname="backup2.svg"><metadata
     id="metadata3102"><rdf:RDF><cc:Work
         rdf:about=""><dc:format>image/svg+xml</dc:format><dc:type
           rdf:resource="http://purl.org/dc/dcmitype/StillImage" /><dc:title></dc:title></cc:Work></rdf:RDF></metadata><defs
     id="defs3100" /><sodipodi:namedview
     pagecolor="#ffffff"
     bordercolor="#666666"
     borderopacity="1"
     objecttolerance="10"
     gridtolerance="10"
     guidetolerance="10"
     inkscape:pageopacity="0"
     inkscape:pageshadow="2"
     inkscape:window-width="669"
     inkscape:window-height="480"
     id="namedview3098"
     showgrid="false"
     inkscape:zoom="2.36"
     inkscape:cx="50"
     inkscape:cy="50"
     inkscape:window-x="0"
     inkscape:window-y="24"
     inkscape:window-maximized="0"
     inkscape:current-layer="svg3092" /><path
     d="m -391.18729,557.80802 c 0.1841,-0.0781 0.27615,-0.11722 0.46025,-0.19536 0.1841,-0.0782 0.3682,-0.15629 0.64435,-0.27351 0.0921,-0.0391 0.1841,-0.0782 0.27616,-0.11722 0.27615,-0.11722 0.46025,-0.19537 0.7364,-0.31259 0.0921,-0.0391 0.0921,-0.0391 0.1841,-0.0781 2.77542,-1.39537 5.43362,-3.06689 7.75142,-5.02847 7.03157,-5.70062 12.36381,-13.61309 14.78615,-23.00629 2.3164,-9.13096 1.54743,-18.36452 -1.61485,-26.58218 -0.0391,-0.0921 -0.0781,-0.1841 -0.0781,-0.1841 -0.11722,-0.27616 -0.19537,-0.46026 -0.31258,-0.73641 -0.0391,-0.092 -0.0391,-0.092 -0.0781,-0.1841 -0.0391,-0.092 -0.0781,-0.1841 -0.11722,-0.27615 -0.0781,-0.1841 -0.15629,-0.3682 -0.27351,-0.64435 -0.0781,-0.1841 -0.15629,-0.36821 -0.23444,-0.55231 -0.0391,-0.0921 -0.11722,-0.27615 -0.15629,-0.3682 -0.35166,-0.82845 -0.7563,-1.52578 -1.2,-2.31516 -0.0391,-0.0921 -0.0781,-0.18411 -0.11722,-0.27616 -0.0781,-0.1841 -0.28742,-0.42118 -0.36557,-0.60528 -0.0781,-0.1841 -0.11722,-0.27615 -0.28741,-0.42118 -0.1702,-0.14502 -0.24835,-0.32912 -0.32649,-0.51323 -0.11722,-0.27615 -0.28742,-0.42117 -0.40464,-0.69733 -0.0391,-0.092 -0.0781,-0.1841 -0.20927,-0.23707 -5.23773,-7.98851 -13.00253,-14.25251 -22.5772,-17.35829 -0.13112,-0.053 -0.26224,-0.10595 -0.35429,-0.0669 -0.26225,-0.10596 -0.48543,-0.11986 -0.65562,-0.26489 -0.26225,-0.10595 -0.48542,-0.11986 -0.74767,-0.22581 -0.0921,0.0391 -0.13112,-0.053 -0.22318,-0.0139 -0.61654,-0.17283 -1.23308,-0.34567 -1.84963,-0.5185 l 0,0 c -1.81056,-0.42646 -3.76615,-0.68273 -5.62969,-0.97806 l -5.0795,-11.96656 c -1.1722,-2.76152 -4.45029,-4.08595 -7.2118,-2.91376 l -25.68209,10.9014 c -2.76151,1.17219 -4.08595,4.45028 -2.91375,7.2118 l 10.9014,25.68208 c 1.17219,2.76152 4.45028,4.08595 7.21179,2.91376 l 25.68209,-10.9014 c 2.76151,-1.17219 4.08595,-4.45028 2.91375,-7.2118 l -3.71194,-8.74479 c 1.06289,0.20064 2.21784,0.36221 3.3198,0.65491 0.61655,0.17283 1.23309,0.34567 1.84964,0.51851 0.13112,0.053 0.13112,0.053 0.26224,0.10595 0.5245,0.21191 1.00992,0.33177 1.53441,0.54368 0.26225,0.10595 0.5245,0.21191 0.74767,0.22581 0.26225,0.10596 0.39337,0.15894 0.65562,0.26489 6.29393,2.54291 11.76804,6.73746 15.92562,11.92537 0.1702,0.14503 0.24835,0.32913 0.41854,0.47416 0.24835,0.32913 0.49669,0.65826 0.74503,0.98739 0.20927,0.23707 0.36556,0.60528 0.57483,0.84235 0.0391,0.0921 0.20927,0.23708 0.24835,0.32913 0.28741,0.42118 0.57483,0.84236 0.80927,1.39466 0.0391,0.0921 0.0781,0.18411 0.11722,0.27616 0.32649,0.51323 0.52185,0.97348 0.84834,1.48671 l 0.0391,0.092 c 0.19537,0.46025 0.52186,0.97348 0.71722,1.43373 0.0391,0.092 0.0782,0.1841 0.11722,0.27615 0.19537,0.46026 0.39073,0.92051 0.5861,1.38076 0.23444,0.55231 0.4298,1.01256 0.66424,1.56486 0.0391,0.092 0.0391,0.092 0.0781,0.1841 5.21397,14.84266 0.96857,31.20195 -10.0708,41.53696 -0.092,0.0391 -0.092,0.0391 -0.14502,0.1702 -0.38211,0.37946 -0.80329,0.66688 -1.09335,1.00727 -0.14502,0.1702 -0.32912,0.24835 -0.47415,0.41854 -0.32913,0.24835 -0.56621,0.45762 -0.89534,0.70596 -0.23708,0.20927 -0.51323,0.32649 -0.65826,0.49669 -0.23707,0.20927 -0.51323,0.32648 -0.7503,0.53575 -0.23708,0.20927 -0.60528,0.36557 -0.84236,0.57484 -0.23708,0.20927 -0.42118,0.28741 -0.69733,0.40463 -0.32913,0.24834 -0.60528,0.36556 -0.93441,0.61391 -0.27615,0.11722 -0.51323,0.32649 -0.69733,0.40463 -0.27615,0.11722 -0.60528,0.36556 -0.88144,0.48278 -0.27615,0.11722 -0.60528,0.36557 -0.88143,0.48279 -0.27615,0.11722 -0.5523,0.23443 -0.78938,0.4437 -0.3682,0.1563 -0.7364,0.31259 -1.1046,0.46888 -0.1841,0.0781 -0.36821,0.15629 -0.55231,0.23444 -0.46025,0.19537 -0.9205,0.39073 -1.4728,0.62517 -0.0921,0.0391 -0.18411,0.0781 -0.36821,0.15629 -13.06853,4.78681 -27.24043,2.11155 -37.48004,-6.14378 -0.0391,-0.0921 -0.1702,-0.14502 -0.1702,-0.14502 -0.34039,-0.29006 -0.71986,-0.67217 -1.1523,-0.92315 -0.1702,-0.14503 -0.37947,-0.38211 -0.64172,-0.48806 -0.20927,-0.23708 -0.37947,-0.38211 -0.68079,-0.58011 -0.34039,-0.29006 -0.58873,-0.61919 -0.89005,-0.81719 -0.13113,-0.053 -0.20927,-0.23708 -0.3404,-0.29006 -0.37946,-0.3821 -0.75893,-0.76421 -1.04634,-1.18539 l -0.0391,-0.092 c -1.21654,-1.33042 -2.24899,-2.73898 -3.18938,-4.18662 l 0,0 c -1.26689,-1.96087 -2.48079,-4.05286 -3.45762,-6.35413 -3.28214,-7.73224 -3.92263,-16.15125 -2.03005,-24.23322 l 7.24224,1.70584 -7.0768,-11.5533 -11.55331,7.0768 7.01908,1.69193 c -2.17137,8.96076 -1.37723,18.50955 2.25657,27.07024 2.42253,5.70713 5.9245,10.63016 10.24366,14.66313 l 0.0391,0.0921 c 0.37947,0.38211 0.85099,0.72514 1.23045,1.10725 0.1702,0.14503 0.30132,0.198 0.37947,0.38211 0.34039,0.29005 0.68079,0.58011 0.98211,0.77811 0.30132,0.19801 0.51059,0.43509 0.77283,0.54104 0,0 0.0391,0.092 0.13113,0.053 4.53107,3.50847 9.80118,5.94279 15.44213,7.45925 8.42236,2.18263 16.88045,1.63419 24.47893,-0.93935 0,0 0,0 0.092,-0.0391 0.27615,-0.11721 0.64435,-0.27351 0.95958,-0.29868 0.0921,-0.0391 0.1841,-0.0781 0.1841,-0.0781 0.27615,-0.11722 0.46025,-0.19537 0.7364,-0.31259 0.092,-0.0391 0.1841,-0.0781 0.3682,-0.15629 0.1841,-0.0781 0.3682,-0.15629 0.64436,-0.27351 0.092,-0.0391 0.092,-0.0391 0.1841,-0.0781 0.092,-0.0391 0.1841,-0.0781 0.27615,-0.11722 z m -11.51181,-65.50968 -25.68208,10.9014 c -0.92051,0.39073 -1.9695,-0.0331 -2.36023,-0.95359 l -10.9014,-25.68209 c -0.39073,-0.9205 0.0331,-1.96949 0.9536,-2.36022 l 25.68208,-10.9014 c 0.92051,-0.39073 1.9695,0.0331 2.36023,0.95359 l 10.9014,25.68209 c 0.35165,0.82845 -0.0331,1.96949 -0.9536,2.36022 z"
     id="path3094"
     inkscape:connector-curvature="0" /><circle
     cx="-441.60001"
     cy="510.60001"
     r="7.3000002"
     id="circle3096"
     sodipodi:cx="-441.60001"
     sodipodi:cy="510.60001"
     sodipodi:rx="7.3000002"
     sodipodi:ry="7.3000002"
     transform="matrix(0.39073113,0.92050485,-0.92050485,0.39073113,220.79693,690.21223)" /></svg>