<?xml version="1.0" encoding="UTF-8" standalone="no"?>
<svg
   xmlns:dc="http://purl.org/dc/elements/1.1/"
   xmlns:cc="http://creativecommons.org/ns#"
   xmlns:rdf="http://www.w3.org/1999/02/22-rdf-syntax-ns#"
   xmlns:svg="http://www.w3.org/2000/svg"
   xmlns="http://www.w3.org/2000/svg"
   xmlns:sodipodi="http://sodipodi.sourceforge.net/DTD/sodipodi-0.dtd"
   xmlns:inkscape="http://www.inkscape.org/namespaces/inkscape"
   version="1.1"
   x="0px"
   y="0px"
   viewBox="-461 463 100 100"
   style="enable-background:new -461 463 100 100;"
   xml:space="preserve"
   id="svg3092"
   inkscape:version="0.48.4 r9939"
   width="100%"
   height="100%"
   sodipodi:docname="backup7.svg"><metadata
     id="metadata3102"><rdf:RDF><cc:Work
         rdf:about=""><dc:format>image/svg+xml</dc:format><dc:type
           rdf:resource="http://purl.org/dc/dcmitype/StillImage" /><dc:title></dc:title></cc:Work></rdf:RDF></metadata><defs
     id="defs3100" /><sodipodi:namedview
     pagecolor="#ffffff"
     bordercolor="#666666"
     borderopacity="1"
     objecttolerance="10"
     gridtolerance="10"
     guidetolerance="10"
     inkscape:pageopacity="0"
     inkscape:pageshadow="2"
     inkscape:window-width="669"
     inkscape:window-height="480"
     id="namedview3098"
     showgrid="false"
     inkscape:zoom="2.36"
     inkscape:cx="50"
     inkscape:cy="50"
     inkscape:window-x="0"
     inkscape:window-y="24"
     inkscape:window-maximized="0"
     inkscape:current-layer="svg3092" /><path
     d="m -375.85679,476.33253 c -0.14142,-0.14142 -0.21214,-0.21213 -0.35356,-0.35355 -0.14142,-0.14143 -0.28284,-0.28285 -0.49497,-0.49498 -0.0707,-0.0707 -0.14142,-0.14142 -0.21213,-0.21213 -0.21214,-0.21213 -0.35356,-0.35355 -0.56569,-0.56569 -0.0707,-0.0707 -0.0707,-0.0707 -0.14142,-0.14142 -2.33345,-2.05061 -4.87904,-3.88909 -7.56604,-5.3033 -7.9196,-4.38406 -17.25341,-6.36396 -26.87006,-5.09117 -9.33381,1.27279 -17.60696,5.44472 -24.04163,11.45513 -0.0707,0.0707 -0.14142,0.14142 -0.14142,0.14142 -0.21213,0.21214 -0.35356,0.35356 -0.56569,0.56569 -0.0707,0.0707 -0.0707,0.0707 -0.14142,0.14142 -0.0707,0.0707 -0.14142,0.14142 -0.21213,0.21213 -0.14142,0.14142 -0.28284,0.28285 -0.49498,0.49498 -0.14142,0.14142 -0.28284,0.28284 -0.42426,0.42426 -0.0707,0.0707 -0.21213,0.21213 -0.28284,0.28284 -0.6364,0.6364 -1.13137,1.2728 -1.69706,1.9799 -0.0707,0.0707 -0.14142,0.14142 -0.21213,0.21213 -0.14142,0.14143 -0.28284,0.42427 -0.42426,0.56569 -0.14143,0.14142 -0.21214,0.21213 -0.28285,0.42426 -0.0707,0.21214 -0.21213,0.35356 -0.35355,0.49498 -0.21213,0.21213 -0.28284,0.42426 -0.49498,0.6364 -0.0707,0.0707 -0.14142,0.14142 -0.14142,0.28284 -5.44472,7.84888 -8.34386,17.39482 -7.63675,27.43574 0,0.14142 0,0.28284 0.0707,0.35355 0,0.28285 0.0707,0.49498 0,0.70711 0,0.28284 0.0707,0.49498 0.0707,0.77782 0.0707,0.0707 0,0.14142 0.0707,0.21213 0.0707,0.6364 0.14142,1.27279 0.21213,1.90919 l 0,0 c 0.28285,1.83848 0.77782,3.74766 1.20209,5.58614 l -9.19239,9.19239 c -2.12132,2.12132 -2.12132,5.65685 0,7.77818 l 19.72828,19.72827 c 2.12132,2.12132 5.65685,2.12132 7.77817,0 l 19.72828,-19.72827 c 2.12132,-2.12133 2.12132,-5.65686 0,-7.77818 l -19.72828,-19.72828 c -2.12132,-2.12132 -5.65685,-2.12132 -7.77817,0 l -6.71752,6.71752 c -0.21213,-1.06066 -0.49497,-2.19204 -0.63639,-3.32341 -0.0707,-0.63639 -0.14143,-1.27279 -0.21214,-1.90918 0,-0.14143 0,-0.14143 0,-0.28285 0,-0.56568 -0.0707,-1.06066 -0.0707,-1.62634 0,-0.28285 0,-0.56569 -0.0707,-0.77782 0,-0.28284 0,-0.42426 0,-0.70711 0,-6.78822 1.83848,-13.43503 5.09117,-19.2333 0.0707,-0.21213 0.21213,-0.35355 0.28284,-0.56569 0.21214,-0.35355 0.42427,-0.7071 0.6364,-1.06066 0.14142,-0.28284 0.42426,-0.56568 0.56569,-0.84852 0.0707,-0.0707 0.14142,-0.28285 0.21213,-0.35356 0.28284,-0.42426 0.56568,-0.84853 0.98995,-1.27279 0.0707,-0.0707 0.14142,-0.14142 0.21213,-0.21213 0.35355,-0.49498 0.70711,-0.84853 1.06066,-1.34351 l 0.0707,-0.0707 c 0.35355,-0.35355 0.70711,-0.84852 1.06066,-1.20208 0.0707,-0.0707 0.14142,-0.14142 0.21213,-0.21213 0.35356,-0.35355 0.70711,-0.70711 1.06066,-1.06066 0.42427,-0.42426 0.77782,-0.77782 1.20208,-1.20208 0.0707,-0.0707 0.0707,-0.0707 0.14143,-0.14142 11.80868,-10.39447 28.56711,-12.5865 42.28498,-6.22254 0.0707,0.0707 0.0707,0.0707 0.21213,0.0707 0.49498,0.21213 0.91924,0.49497 1.34351,0.63639 0.21213,0.0707 0.35355,0.21214 0.56568,0.28285 0.35355,0.21213 0.6364,0.35355 0.98995,0.56568 0.28284,0.14142 0.49498,0.35356 0.70711,0.42427 0.28284,0.14142 0.49497,0.35355 0.77781,0.49497 0.28285,0.14142 0.56569,0.42427 0.84853,0.56569 0.28285,0.14142 0.42427,0.28284 0.6364,0.49497 0.35355,0.21213 0.56568,0.42427 0.91924,0.6364 0.21213,0.21213 0.49497,0.35355 0.63639,0.49497 0.21214,0.21213 0.56569,0.42427 0.77782,0.6364 0.21213,0.21213 0.56569,0.42426 0.77782,0.63639 0.21213,0.21214 0.42426,0.42427 0.70711,0.56569 0.28284,0.28284 0.56568,0.56569 0.84852,0.84853 0.14143,0.14142 0.28285,0.28284 0.42427,0.42426 0.35355,0.35356 0.7071,0.70711 1.13137,1.13137 0.0707,0.0707 0.14142,0.14142 0.28284,0.28285 9.33381,10.32375 12.16224,24.46589 8.34386,37.05239 -0.0707,0.0707 -0.0707,0.21213 -0.0707,0.21213 -0.14142,0.42427 -0.35355,0.91924 -0.42426,1.41422 -0.0707,0.21213 -0.21214,0.49497 -0.21214,0.77781 -0.14142,0.28285 -0.21213,0.49498 -0.28284,0.84853 -0.14142,0.42427 -0.35355,0.77782 -0.42426,1.13137 0,0.14142 -0.14142,0.28285 -0.14142,0.42427 -0.21214,0.49497 -0.42427,0.98995 -0.70711,1.41421 l -0.0707,0.0707 c -0.77782,1.62635 -1.69706,3.11127 -2.68701,4.52548 l 0,0 c -1.3435,1.90919 -2.82842,3.81838 -4.59619,5.58615 -5.9397,5.9397 -13.50574,9.68736 -21.70818,10.96015 l -1.13137,-7.35391 -8.06102,10.88945 10.88945,8.06101 -1.06066,-7.14177 c 9.12167,-1.34351 17.67767,-5.65686 24.25376,-12.23295 4.38406,-4.38406 7.63675,-9.47523 9.75807,-14.99066 l 0.0707,-0.0707 c 0.21214,-0.49497 0.35356,-1.06066 0.56569,-1.55563 0.0707,-0.21213 0.0707,-0.35355 0.21213,-0.49498 0.14142,-0.42426 0.28284,-0.84852 0.35355,-1.20208 0.0707,-0.35355 0.21214,-0.63639 0.21214,-0.91924 0,0 0.0707,-0.0707 0,-0.14142 1.55563,-5.51543 1.83847,-11.31371 1.13137,-17.11198 -1.13137,-8.6267 -4.80833,-16.26346 -10.04092,-22.34458 0,0 0,0 -0.0707,-0.0707 -0.21213,-0.21213 -0.49497,-0.49497 -0.6364,-0.77781 -0.0707,-0.0707 -0.14142,-0.14142 -0.14142,-0.14142 -0.21213,-0.21214 -0.35355,-0.35356 -0.56568,-0.56569 -0.0707,-0.0707 -0.14142,-0.14142 -0.28284,-0.28284 -0.14143,-0.14142 -0.28285,-0.28285 -0.49498,-0.49498 -0.0707,-0.0707 -0.0707,-0.0707 -0.14142,-0.14142 -0.0707,-0.0707 -0.14142,-0.14142 -0.21213,-0.21213 z m -56.42712,35.21392 19.72828,19.72828 c 0.7071,0.7071 0.7071,1.83847 0,2.54558 l -19.72828,19.72828 c -0.70711,0.70711 -1.83848,0.70711 -2.54559,0 l -19.72828,-19.72828 c -0.7071,-0.70711 -0.7071,-1.83848 0,-2.54558 l 19.72828,-19.72828 c 0.6364,-0.6364 1.83848,-0.70711 2.54559,0 z"
     id="path3094"
     inkscape:connector-curvature="0" /><circle
     cx="-441.60001"
     cy="510.60001"
     r="7.3000002"
     id="circle3096"
     sodipodi:cx="-441.60001"
     sodipodi:cy="510.60001"
     sodipodi:rx="7.3000002"
     sodipodi:ry="7.3000002"
     transform="matrix(0.70710678,-0.70710678,0.70710678,0.70710678,-482.34707,-140.68885)" /></svg>