<svg xmlns="http://www.w3.org/2000/svg" xmlns:xlink="http://www.w3.org/1999/xlink" version="1.1" x="0px" y="0px" viewBox="-461 463 100 100" style="enable-background:new -461 463 100 100;" xml:space="preserve"><path d="M-361,511.6c0-0.2,0-0.3,0-0.5c0-0.2,0-0.4,0-0.7c0-0.1,0-0.2,0-0.3c0-0.3,0-0.5,0-0.8c0-0.1,0-0.1,0-0.2  c-0.2-3.1-0.7-6.2-1.6-9.1c-2.5-8.7-7.7-16.7-15.4-22.6c-7.5-5.7-16.3-8.6-25.1-8.9c-0.1,0-0.2,0-0.2,0c-0.3,0-0.5,0-0.8,0  c-0.1,0-0.1,0-0.2,0c-0.1,0-0.2,0-0.3,0c-0.2,0-0.4,0-0.7,0c-0.2,0-0.4,0-0.6,0c-0.1,0-0.3,0-0.4,0c-0.9,0-1.7,0.1-2.6,0.2  c-0.1,0-0.2,0-0.3,0c-0.2,0-0.5,0.1-0.7,0.1c-0.2,0-0.3,0-0.5,0.1c-0.2,0.1-0.4,0.1-0.6,0.1c-0.3,0-0.5,0.1-0.8,0.1  c-0.1,0-0.2,0-0.3,0.1c-9.4,1.7-18.2,6.4-24.8,14c-0.1,0.1-0.2,0.2-0.2,0.3c-0.2,0.2-0.3,0.4-0.5,0.5c-0.2,0.2-0.3,0.4-0.5,0.6  c0,0.1-0.1,0.1-0.1,0.2c-0.4,0.5-0.8,1-1.2,1.5l0,0c-1.1,1.5-2.1,3.2-3.1,4.8h-13c-3,0-5.5,2.5-5.5,5.5v27.9c0,3,2.5,5.5,5.5,5.5  h27.9c3,0,5.5-2.5,5.5-5.5v-27.9c0-3-2.5-5.5-5.5-5.5h-9.5c0.6-0.9,1.2-1.9,1.9-2.8c0.4-0.5,0.8-1,1.2-1.5c0.1-0.1,0.1-0.1,0.2-0.2  c0.4-0.4,0.7-0.8,1.1-1.2c0.2-0.2,0.4-0.4,0.5-0.6c0.2-0.2,0.3-0.3,0.5-0.5c4.8-4.8,10.8-8.2,17.2-10c0.2-0.1,0.4-0.1,0.6-0.2  c0.4-0.1,0.8-0.2,1.2-0.3c0.3-0.1,0.7-0.1,1-0.2c0.1,0,0.3-0.1,0.4-0.1c0.5-0.1,1-0.2,1.6-0.2c0.1,0,0.2,0,0.3,0  c0.6-0.1,1.1-0.1,1.7-0.2h0.1c0.5,0,1.1-0.1,1.6-0.1c0.1,0,0.2,0,0.3,0c0.5,0,1,0,1.5,0c0.6,0,1.1,0,1.7,0c0.1,0,0.1,0,0.2,0  c15.7,1,29.1,11.3,34.3,25.5c0,0.1,0,0.1,0.1,0.2c0.2,0.5,0.3,1,0.5,1.4c0.1,0.2,0.1,0.4,0.2,0.6c0.1,0.4,0.2,0.7,0.3,1.1  c0.1,0.3,0.1,0.6,0.2,0.8c0.1,0.3,0.1,0.6,0.2,0.9c0.1,0.3,0.1,0.7,0.2,1s0.1,0.5,0.1,0.8c0.1,0.4,0.1,0.7,0.2,1.1  c0,0.3,0.1,0.6,0.1,0.8c0,0.3,0.1,0.7,0.1,1c0,0.3,0.1,0.7,0.1,1c0,0.3,0,0.6,0.1,0.9c0,0.4,0,0.8,0,1.2c0,0.2,0,0.4,0,0.6  c0,0.5,0,1,0,1.6c0,0.1,0,0.2,0,0.4c-0.7,13.9-8.7,25.9-20.3,32.1c-0.1,0-0.2,0.1-0.2,0.1c-0.4,0.2-0.9,0.4-1.3,0.7  c-0.2,0.1-0.5,0.2-0.7,0.4c-0.3,0.1-0.5,0.2-0.8,0.4c-0.4,0.2-0.8,0.3-1.1,0.5c-0.1,0.1-0.3,0.1-0.4,0.2c-0.5,0.2-1,0.4-1.5,0.5  h-0.1c-1.7,0.6-3.4,1-5.1,1.3l0,0c-2.3,0.4-4.7,0.7-7.2,0.7c-8.4,0-16.4-2.7-23.1-7.6l4.4-6l-13.4,2l2,13.4l4.3-5.8  c7.4,5.5,16.5,8.5,25.8,8.5c6.2,0,12.1-1.3,17.5-3.7h0.1c0.5-0.2,1-0.5,1.5-0.7c0.2-0.1,0.3-0.2,0.5-0.2c0.4-0.2,0.8-0.4,1.1-0.6  c0.3-0.2,0.6-0.3,0.8-0.5c0,0,0.1,0,0.1-0.1c5-2.8,9.3-6.7,12.9-11.3c5.3-6.9,8.1-14.9,8.7-22.9c0,0,0,0,0-0.1c0-0.3,0-0.7,0.1-1  c0-0.1,0-0.2,0-0.2c0-0.3,0-0.5,0-0.8c0-0.1,0-0.2,0-0.4s0-0.4,0-0.7c0-0.1,0-0.1,0-0.2S-361,511.7-361,511.6z M-425.8,496.6v27.9  c0,1-0.8,1.8-1.8,1.8h-27.9c-1,0-1.8-0.8-1.8-1.8v-27.9c0-1,0.8-1.8,1.8-1.8h27.9C-426.7,494.8-425.8,495.6-425.8,496.6z"></path><circle cx="-441.6" cy="510.6" r="7.3"></circle></svg>