<?xml version="1.0" encoding="UTF-8" standalone="no"?>
<svg
   xmlns:dc="http://purl.org/dc/elements/1.1/"
   xmlns:cc="http://creativecommons.org/ns#"
   xmlns:rdf="http://www.w3.org/1999/02/22-rdf-syntax-ns#"
   xmlns:svg="http://www.w3.org/2000/svg"
   xmlns="http://www.w3.org/2000/svg"
   xmlns:sodipodi="http://sodipodi.sourceforge.net/DTD/sodipodi-0.dtd"
   xmlns:inkscape="http://www.inkscape.org/namespaces/inkscape"
   version="1.1"
   x="0px"
   y="0px"
   viewBox="-461 463 100 100"
   style="enable-background:new -461 463 100 100;"
   xml:space="preserve"
   id="svg3092"
   inkscape:version="0.48.4 r9939"
   width="100%"
   height="100%"
   sodipodi:docname="backup8.svg"><metadata
     id="metadata3102"><rdf:RDF><cc:Work
         rdf:about=""><dc:format>image/svg+xml</dc:format><dc:type
           rdf:resource="http://purl.org/dc/dcmitype/StillImage" /><dc:title></dc:title></cc:Work></rdf:RDF></metadata><defs
     id="defs3100" /><sodipodi:namedview
     pagecolor="#ffffff"
     bordercolor="#666666"
     borderopacity="1"
     objecttolerance="10"
     gridtolerance="10"
     guidetolerance="10"
     inkscape:pageopacity="0"
     inkscape:pageshadow="2"
     inkscape:window-width="669"
     inkscape:window-height="480"
     id="namedview3098"
     showgrid="false"
     inkscape:zoom="2.36"
     inkscape:cx="50"
     inkscape:cy="50"
     inkscape:window-x="0"
     inkscape:window-y="24"
     inkscape:window-maximized="0"
     inkscape:current-layer="svg3092" /><path
     d="m -457.14246,492.6396 c -0.0781,0.1841 -0.11722,0.27615 -0.19537,0.46025 -0.0781,0.1841 -0.15629,0.3682 -0.27351,0.64435 -0.0391,0.0921 -0.0781,0.1841 -0.11722,0.27615 -0.11722,0.27615 -0.19536,0.46025 -0.31258,0.73641 -0.0391,0.0921 -0.0391,0.0921 -0.0781,0.1841 -1.02717,2.93171 -1.77818,5.98064 -2.08285,9.00176 -1.09809,8.98522 0.56268,18.38106 5.34526,26.82067 4.67661,8.17736 11.64394,14.28526 19.62716,17.99984 0.092,0.0391 0.1841,0.0781 0.1841,0.0781 0.27615,0.11722 0.46025,0.19537 0.73641,0.31259 0.0921,0.0391 0.0921,0.0391 0.1841,0.0781 0.0921,0.0391 0.1841,0.0782 0.27615,0.11722 0.1841,0.0781 0.3682,0.15629 0.64435,0.27351 0.1841,0.0781 0.3682,0.1563 0.5523,0.23444 0.092,0.0391 0.27616,0.11722 0.36821,0.15629 0.82845,0.35166 1.60393,0.5722 2.47146,0.8318 0.092,0.0391 0.1841,0.0781 0.27615,0.11722 0.1841,0.0782 0.49932,0.10332 0.68342,0.18146 0.1841,0.0781 0.27615,0.11722 0.49933,0.10332 0.22317,-0.0139 0.40727,0.0642 0.59137,0.14239 0.27616,0.11722 0.49933,0.10331 0.77548,0.22053 0.0921,0.0391 0.1841,0.0782 0.31523,0.0252 9.31698,2.10802 19.25386,1.22008 28.29875,-3.19693 0.13113,-0.053 0.26225,-0.10596 0.30132,-0.19801 0.26225,-0.10595 0.43245,-0.25098 0.65562,-0.26489 0.26225,-0.10595 0.43244,-0.25098 0.69469,-0.35693 0.0391,-0.092 0.13113,-0.053 0.1702,-0.14503 0.56357,-0.30396 1.12713,-0.60792 1.6907,-0.91188 l 0,0 c 1.59865,-0.95095 3.1834,-2.12508 4.72908,-3.20716 l 11.96656,5.07951 c 2.76151,1.17219 6.0396,-0.15224 7.2118,-2.91376 l 10.90139,-25.68208 c 1.1722,-2.76152 -0.15224,-6.03961 -2.91375,-7.2118 l -25.68209,-10.9014 c -2.76151,-1.17219 -6.0396,0.15224 -7.21179,2.91375 l -10.9014,25.68209 c -1.1722,2.76151 0.15224,6.0396 2.91375,7.2118 l 8.7448,3.71194 c -0.90396,0.59402 -1.847,1.28009 -2.84301,1.83503 -0.56356,0.30396 -1.12713,0.60792 -1.6907,0.91188 -0.13112,0.053 -0.13112,0.053 -0.26225,0.10595 -0.52449,0.21191 -0.95694,0.46289 -1.48143,0.6748 -0.26225,0.10596 -0.52449,0.21191 -0.69469,0.35694 -0.26225,0.10596 -0.39337,0.15893 -0.65562,0.26489 -6.29393,2.54291 -13.14545,3.32824 -19.73999,2.48447 -0.22318,0.0139 -0.40728,-0.0642 -0.63045,-0.0503 -0.40728,-0.0642 -0.81455,-0.12848 -1.22183,-0.19272 -0.31522,-0.0252 -0.68342,-0.18146 -0.99865,-0.20663 -0.092,-0.0391 -0.31522,-0.0252 -0.40727,-0.0642 -0.49933,-0.10332 -0.99865,-0.20663 -1.55096,-0.44107 -0.092,-0.0391 -0.1841,-0.0782 -0.27615,-0.11722 -0.59138,-0.14239 -1.05163,-0.33776 -1.643,-0.48014 l -0.092,-0.0391 c -0.46026,-0.19536 -1.05163,-0.33775 -1.51189,-0.53312 -0.0921,-0.0391 -0.1841,-0.0781 -0.27615,-0.11722 -0.46025,-0.19536 -0.9205,-0.39073 -1.38075,-0.58609 -0.55231,-0.23444 -1.01256,-0.42981 -1.56486,-0.66425 -0.092,-0.0391 -0.092,-0.0391 -0.1841,-0.0781 -14.0612,-7.05499 -22.37143,-21.77198 -21.60968,-36.87495 0.0391,-0.0921 0.0391,-0.0921 -0.0139,-0.22318 0.0113,-0.5384 0.11458,-1.03772 0.0868,-1.48407 -0.0139,-0.22317 0.0642,-0.40727 0.0503,-0.63045 0.0642,-0.40727 0.0894,-0.7225 0.15365,-1.12977 0.0252,-0.31523 0.14239,-0.59138 0.12849,-0.81455 0.0252,-0.31523 0.14238,-0.59138 0.16755,-0.9066 0.0252,-0.31523 0.18146,-0.68343 0.20663,-0.99866 0.0252,-0.31522 0.10332,-0.49932 0.22054,-0.77547 0.0642,-0.40728 0.18146,-0.68343 0.2457,-1.0907 0.11722,-0.27616 0.14239,-0.59138 0.22053,-0.77548 0.11722,-0.27615 0.18147,-0.68343 0.29869,-0.95958 0.11721,-0.27615 0.18146,-0.68343 0.29868,-0.95958 0.11722,-0.27615 0.23443,-0.5523 0.2596,-0.86752 0.1563,-0.36821 0.31259,-0.73641 0.46888,-1.10461 0.0781,-0.1841 0.15629,-0.3682 0.23444,-0.5523 0.19537,-0.46026 0.39073,-0.92051 0.62517,-1.47281 0.0391,-0.092 0.0781,-0.1841 0.15629,-0.3682 6.07552,-12.52151 18.12833,-20.44172 31.22872,-21.61637 0.092,0.0391 0.22317,-0.0139 0.22317,-0.0139 0.44635,-0.0278 0.98475,-0.0165 1.47017,-0.1364 0.22318,-0.0139 0.5384,0.0113 0.80065,-0.0947 0.31522,0.0252 0.5384,0.0113 0.89269,-0.0556 0.44635,-0.0278 0.85363,0.0364 1.20792,-0.0305 0.13113,-0.053 0.31523,0.0252 0.44635,-0.0278 0.5384,0.0113 1.0768,0.0225 1.57613,0.12585 l 0.092,0.0391 c 1.79929,0.11194 3.52044,0.40798 5.20252,0.79607 l 0,0 c 2.27346,0.53048 4.59989,1.19208 6.90115,2.16891 7.73224,3.28214 14.0413,8.89336 18.2941,16.02173 l -6.3946,3.80381 13.11622,3.39479 3.39479,-13.11623 -6.22441,3.65879 c -4.66272,-7.95419 -11.86712,-14.27136 -20.42781,-17.90516 -5.70713,-2.42253 -11.64606,-3.53119 -17.55454,-3.43193 l -0.0921,-0.0391 c -0.5384,-0.0113 -1.11587,0.0695 -1.65427,0.0583 -0.22318,0.0139 -0.3543,0.0669 -0.5384,-0.0113 -0.44635,0.0278 -0.8927,0.0556 -1.24699,0.1225 -0.3543,0.0669 -0.66953,0.0417 -0.93177,0.14767 0,0 -0.0921,-0.0391 -0.13113,0.053 -5.69657,0.62375 -11.17859,2.53358 -16.28977,5.36127 -7.57472,4.28061 -13.27798,10.5506 -16.95614,17.6802 0,0 0,0 -0.0391,0.092 -0.11722,0.27615 -0.27351,0.64435 -0.48278,0.88143 -0.0391,0.092 -0.0781,0.1841 -0.0781,0.1841 -0.11722,0.27615 -0.19536,0.46026 -0.31258,0.73641 -0.0391,0.0921 -0.0781,0.1841 -0.15629,0.3682 -0.0781,0.1841 -0.1563,0.3682 -0.27352,0.64435 -0.0391,0.092 -0.0391,0.092 -0.0781,0.1841 -0.0391,0.092 -0.0781,0.1841 -0.11722,0.27616 z m 53.78775,39.12694 10.90139,-25.68208 c 0.39074,-0.92051 1.43972,-1.34432 2.36023,-0.95359 l 25.68208,10.9014 c 0.92051,0.39073 1.34433,1.43972 0.9536,2.36022 l -10.9014,25.68209 c -0.39073,0.9205 -1.43972,1.34432 -2.36023,0.95359 l -25.68208,-10.9014 c -0.82846,-0.35166 -1.34433,-1.43972 -0.95359,-2.36023 z"
     id="path3094"
     inkscape:connector-curvature="0" /><circle
     cx="-441.60001"
     cy="510.60001"
     r="7.3000002"
     id="circle3096"
     sodipodi:cx="-441.60001"
     sodipodi:cy="510.60001"
     sodipodi:rx="7.3000002"
     sodipodi:ry="7.3000002"
     transform="matrix(-0.92050485,-0.39073113,0.39073113,-0.92050485,-989.34276,822.51594)" /></svg>