<?xml version="1.0" encoding="UTF-8" standalone="no"?>
<svg
   xmlns:dc="http://purl.org/dc/elements/1.1/"
   xmlns:cc="http://creativecommons.org/ns#"
   xmlns:rdf="http://www.w3.org/1999/02/22-rdf-syntax-ns#"
   xmlns:svg="http://www.w3.org/2000/svg"
   xmlns="http://www.w3.org/2000/svg"
   xmlns:sodipodi="http://sodipodi.sourceforge.net/DTD/sodipodi-0.dtd"
   xmlns:inkscape="http://www.inkscape.org/namespaces/inkscape"
   version="1.1"
   x="0px"
   y="0px"
   viewBox="-461 463 100 100"
   style="enable-background:new -461 463 100 100;"
   xml:space="preserve"
   id="svg3092"
   inkscape:version="0.48.4 r9939"
   width="100%"
   height="100%"
   sodipodi:docname="backup10.svg"><metadata
     id="metadata3102"><rdf:RDF><cc:Work
         rdf:about=""><dc:format>image/svg+xml</dc:format><dc:type
           rdf:resource="http://purl.org/dc/dcmitype/StillImage" /><dc:title></dc:title></cc:Work></rdf:RDF></metadata><defs
     id="defs3100" /><sodipodi:namedview
     pagecolor="#ffffff"
     bordercolor="#666666"
     borderopacity="1"
     objecttolerance="10"
     gridtolerance="10"
     guidetolerance="10"
     inkscape:pageopacity="0"
     inkscape:pageshadow="2"
     inkscape:window-width="669"
     inkscape:window-height="480"
     id="namedview3098"
     showgrid="false"
     inkscape:zoom="2.36"
     inkscape:cx="50"
     inkscape:cy="50"
     inkscape:window-x="0"
     inkscape:window-y="24"
     inkscape:window-maximized="0"
     inkscape:current-layer="svg3092" /><path
     d="m -430.00848,465.65319 c -0.18544,0.0749 -0.27816,0.11238 -0.4636,0.1873 -0.18543,0.0749 -0.37087,0.14985 -0.64903,0.26223 -0.0927,0.0375 -0.18543,0.0749 -0.27815,0.11238 -0.27816,0.11238 -0.46359,0.1873 -0.74175,0.29968 -0.0927,0.0375 -0.0927,0.0375 -0.18543,0.0749 -2.79935,1.34671 -5.48632,2.97159 -7.83801,4.89241 -7.12998,5.57704 -12.5995,13.39525 -15.18541,22.74474 -2.4754,9.08914 -1.86769,18.33471 1.15069,26.60631 0.0375,0.0927 0.0749,0.18544 0.0749,0.18544 0.11238,0.27816 0.1873,0.46359 0.29969,0.74175 0.0375,0.0927 0.0375,0.0927 0.0749,0.18543 0.0375,0.0927 0.0749,0.18544 0.11238,0.27816 0.0749,0.18544 0.14984,0.37087 0.26222,0.64903 0.0749,0.18543 0.14985,0.37087 0.22477,0.55631 0.0375,0.0927 0.11238,0.27815 0.14984,0.37087 0.33715,0.83447 0.72955,1.53875 1.15941,2.33576 0.0375,0.0927 0.0749,0.18544 0.11239,0.27815 0.0749,0.18544 0.28002,0.42614 0.35494,0.61157 0.0749,0.18544 0.11238,0.27816 0.28002,0.42613 0.16764,0.14798 0.24256,0.33342 0.31748,0.51885 0.11238,0.27816 0.28002,0.42613 0.39241,0.70429 0.0375,0.0927 0.0749,0.18544 0.2051,0.24069 5.09751,8.0787 12.75181,14.47727 22.27081,17.74967 0.13018,0.0553 0.26036,0.11052 0.35308,0.0731 0.26036,0.11051 0.48326,0.12831 0.6509,0.27628 0.26035,0.11052 0.48325,0.12832 0.74361,0.23883 0.0927,-0.0375 0.13018,0.0553 0.2229,0.0178 0.61343,0.18357 1.22687,0.36714 1.8403,0.55071 l 0,0 c 1.80284,0.45799 3.75366,0.74835 5.61176,1.07616 l 4.86989,12.05339 c 1.12382,2.78155 4.3783,4.16299 7.15985,3.03917 l 25.86843,-10.45152 c 2.78155,-1.12382 4.16299,-4.3783 3.03917,-7.15985 l -10.45152,-25.86843 c -1.12382,-2.78155 -4.3783,-4.16299 -7.15985,-3.03917 l -25.86843,10.45152 c -2.78155,1.12382 -4.16299,4.3783 -3.03917,7.15985 l 3.55876,8.80825 c -1.05923,-0.21917 -2.21118,-0.40087 -3.30787,-0.71276 -0.61343,-0.18357 -1.22687,-0.36714 -1.8403,-0.55071 -0.13018,-0.0553 -0.13018,-0.0553 -0.26036,-0.11051 -0.52072,-0.22103 -1.00397,-0.34934 -1.52469,-0.57038 -0.26036,-0.11051 -0.52072,-0.22103 -0.74361,-0.23882 -0.26036,-0.11052 -0.39054,-0.16578 -0.6509,-0.27629 -6.24859,-2.65237 -11.64866,-6.94181 -15.71507,-12.2015 -0.16764,-0.14797 -0.24256,-0.33341 -0.4102,-0.48139 -0.24256,-0.33341 -0.48512,-0.66682 -0.72768,-1.00024 -0.2051,-0.24069 -0.35495,-0.61156 -0.56005,-0.85226 -0.0375,-0.0927 -0.2051,-0.24069 -0.24256,-0.33341 -0.28002,-0.42613 -0.56004,-0.85226 -0.78481,-1.40857 -0.0375,-0.0927 -0.0749,-0.18544 -0.11238,-0.27816 -0.31748,-0.51885 -0.50478,-0.98244 -0.82227,-1.50129 l -0.0375,-0.0927 c -0.1873,-0.46359 -0.50478,-0.98244 -0.69208,-1.44603 -0.0375,-0.0927 -0.0749,-0.18544 -0.11239,-0.27816 -0.1873,-0.46359 -0.3746,-0.92718 -0.56191,-1.39077 -0.22476,-0.55631 -0.41206,-1.01991 -0.63683,-1.57622 -0.0375,-0.0927 -0.0375,-0.0927 -0.0749,-0.18543 -4.95414,-14.9314 -0.42387,-31.21411 10.79418,-41.35488 0.0927,-0.0375 0.0927,-0.0375 0.14798,-0.16764 0.38867,-0.37274 0.8148,-0.65276 1.11075,-0.98804 0.14798,-0.16764 0.33342,-0.24256 0.48139,-0.4102 0.33341,-0.24256 0.57411,-0.44766 0.90752,-0.69022 0.2407,-0.2051 0.51885,-0.31748 0.66683,-0.48512 0.24069,-0.2051 0.51885,-0.31749 0.75954,-0.52259 0.2407,-0.2051 0.61157,-0.35494 0.85226,-0.56004 0.2407,-0.2051 0.42614,-0.28002 0.70429,-0.3924 0.33341,-0.24256 0.61157,-0.35495 0.94498,-0.59751 0.27816,-0.11238 0.51885,-0.31748 0.70429,-0.3924 0.27815,-0.11238 0.61157,-0.35494 0.88972,-0.46733 0.27816,-0.11238 0.61157,-0.35494 0.88972,-0.46732 0.27816,-0.11238 0.55632,-0.22476 0.79701,-0.42987 0.37087,-0.14984 0.74175,-0.29968 1.11262,-0.44952 0.18544,-0.0749 0.37087,-0.14985 0.55631,-0.22477 0.46359,-0.1873 0.92718,-0.3746 1.48349,-0.59937 0.0927,-0.0375 0.18544,-0.0749 0.37088,-0.14984 13.15008,-4.558 27.27314,-1.63581 37.36711,6.79696 0.0375,0.0927 0.16764,0.14798 0.16764,0.14798 0.33528,0.29595 0.70802,0.68462 1.13602,0.94311 0.16764,0.14798 0.37274,0.38867 0.6331,0.49919 0.2051,0.24069 0.37274,0.38867 0.67056,0.5919 0.33528,0.29595 0.57784,0.62937 0.87566,0.8326 0.13018,0.0553 0.2051,0.24069 0.33528,0.29595 0.37274,0.38867 0.74548,0.77734 1.0255,1.20348 l 0.0375,0.0927 c 1.19314,1.35145 2.20085,2.77782 3.11583,4.24165 l 0,0 c 1.23247,1.98268 2.40968,4.09554 3.3462,6.4135 3.14669,7.78835 3.64015,16.21725 1.60681,24.26496 l -7.21137,-1.83197 6.8741,11.67505 11.67505,-6.8741 -6.98848,-1.81417 c 2.32742,-8.9215 1.70006,-18.48269 -1.78378,-27.1055 -2.32257,-5.74854 -5.73808,-10.73193 -9.9862,-14.83967 l -0.0375,-0.0927 c -0.37274,-0.38867 -0.8382,-0.73988 -1.21094,-1.12855 -0.16764,-0.14798 -0.29782,-0.20323 -0.37274,-0.38867 -0.33528,-0.29595 -0.67056,-0.59191 -0.96838,-0.79514 -0.29782,-0.20323 -0.50292,-0.44393 -0.76327,-0.55444 0,0 -0.0375,-0.0927 -0.13018,-0.0553 -4.46915,-3.58702 -9.69598,-6.11295 -15.30961,-7.72762 -8.38298,-2.32929 -16.84935,-1.92855 -24.49158,0.51199 0,0 0,0 -0.0927,0.0375 -0.27816,0.11239 -0.64903,0.26223 -0.96465,0.28189 -0.0927,0.0375 -0.18543,0.0749 -0.18543,0.0749 -0.27816,0.11239 -0.4636,0.18731 -0.74175,0.29969 -0.0927,0.0375 -0.18544,0.0749 -0.37087,0.14984 -0.18544,0.0749 -0.37088,0.14984 -0.64903,0.26223 -0.0927,0.0375 -0.0927,0.0375 -0.18544,0.0749 -0.0927,0.0375 -0.18544,0.0749 -0.27815,0.11238 z m 10.36674,65.70061 25.86843,-10.45152 c 0.92719,-0.37461 1.96862,0.0675 2.34323,0.99464 l 10.45152,25.86843 c 0.37461,0.92718 -0.0675,1.96861 -0.99464,2.34322 l -25.86843,10.45152 c -0.92718,0.37461 -1.96861,-0.0674 -2.34322,-0.99464 l -10.45152,-25.86843 c -0.33715,-0.83446 0.0675,-1.96861 0.99463,-2.34322 z"
     id="path3094"
     inkscape:connector-curvature="0" /><circle
     cx="-441.60001"
     cy="510.60001"
     r="7.3000002"
     id="circle3096"
     sodipodi:cx="-441.60001"
     sodipodi:cy="510.60001"
     sodipodi:rx="7.3000002"
     sodipodi:ry="7.3000002"
     transform="matrix(-0.37460659,-0.92718385,0.92718385,-0.37460659,-1039.5887,322.58855)" /></svg>